<mxfile host="app.diagrams.net" agent="Mozilla/5.0 (X11; Linux x86_64; rv:132.0) Gecko/20100101 Firefox/132.0" version="24.8.6">
  <diagram name="Page-1" id="LKVzZjUORP4t7JOtEKjx">
    <mxGraphModel dx="3576" dy="2941" grid="1" gridSize="10" guides="1" tooltips="1" connect="1" arrows="1" fold="1" page="1" pageScale="1" pageWidth="850" pageHeight="1100" math="0" shadow="0">
      <root>
        <mxCell id="0" />
        <mxCell id="1" style="locked=1;" parent="0" />
        <mxCell id="89PQKOFuobvwljje_Hko-198" value="Row / column names" style="locked=1;" parent="0" />
        <mxCell id="89PQKOFuobvwljje_Hko-200" value="&lt;font style=&quot;font-size: 24px;&quot;&gt;1&lt;/font&gt;" style="text;html=1;align=center;verticalAlign=middle;resizable=0;points=[];autosize=1;strokeColor=none;fillColor=none;fontStyle=1" parent="89PQKOFuobvwljje_Hko-198" vertex="1">
          <mxGeometry x="50" y="660" width="40" height="40" as="geometry" />
        </mxCell>
        <mxCell id="89PQKOFuobvwljje_Hko-201" value="&lt;font style=&quot;font-size: 24px;&quot;&gt;2&lt;/font&gt;" style="text;html=1;align=center;verticalAlign=middle;resizable=0;points=[];autosize=1;strokeColor=none;fillColor=none;fontStyle=1" parent="89PQKOFuobvwljje_Hko-198" vertex="1">
          <mxGeometry x="50" y="580" width="40" height="40" as="geometry" />
        </mxCell>
        <mxCell id="89PQKOFuobvwljje_Hko-202" value="&lt;font style=&quot;font-size: 24px;&quot;&gt;3&lt;/font&gt;" style="text;html=1;align=center;verticalAlign=middle;resizable=0;points=[];autosize=1;strokeColor=none;fillColor=none;fontStyle=1" parent="89PQKOFuobvwljje_Hko-198" vertex="1">
          <mxGeometry x="50" y="500" width="40" height="40" as="geometry" />
        </mxCell>
        <mxCell id="89PQKOFuobvwljje_Hko-203" value="&lt;font style=&quot;font-size: 24px;&quot;&gt;4&lt;/font&gt;" style="text;html=1;align=center;verticalAlign=middle;resizable=0;points=[];autosize=1;strokeColor=none;fillColor=none;fontStyle=1" parent="89PQKOFuobvwljje_Hko-198" vertex="1">
          <mxGeometry x="50" y="420" width="40" height="40" as="geometry" />
        </mxCell>
        <mxCell id="89PQKOFuobvwljje_Hko-204" value="&lt;font style=&quot;font-size: 24px;&quot;&gt;5&lt;/font&gt;" style="text;html=1;align=center;verticalAlign=middle;resizable=0;points=[];autosize=1;strokeColor=none;fillColor=none;fontStyle=1" parent="89PQKOFuobvwljje_Hko-198" vertex="1">
          <mxGeometry x="50" y="340" width="40" height="40" as="geometry" />
        </mxCell>
        <mxCell id="89PQKOFuobvwljje_Hko-205" value="&lt;font style=&quot;font-size: 24px;&quot;&gt;6&lt;/font&gt;" style="text;html=1;align=center;verticalAlign=middle;resizable=0;points=[];autosize=1;strokeColor=none;fillColor=none;fontStyle=1" parent="89PQKOFuobvwljje_Hko-198" vertex="1">
          <mxGeometry x="50" y="260" width="40" height="40" as="geometry" />
        </mxCell>
        <mxCell id="89PQKOFuobvwljje_Hko-206" value="&lt;font style=&quot;font-size: 24px;&quot;&gt;7&lt;/font&gt;" style="text;html=1;align=center;verticalAlign=middle;resizable=0;points=[];autosize=1;strokeColor=none;fillColor=none;fontStyle=1" parent="89PQKOFuobvwljje_Hko-198" vertex="1">
          <mxGeometry x="50" y="180" width="40" height="40" as="geometry" />
        </mxCell>
        <mxCell id="89PQKOFuobvwljje_Hko-207" value="&lt;font style=&quot;font-size: 24px;&quot;&gt;8&lt;/font&gt;" style="text;html=1;align=center;verticalAlign=middle;resizable=0;points=[];autosize=1;strokeColor=none;fillColor=none;fontStyle=1" parent="89PQKOFuobvwljje_Hko-198" vertex="1">
          <mxGeometry x="50" y="100" width="40" height="40" as="geometry" />
        </mxCell>
        <mxCell id="89PQKOFuobvwljje_Hko-208" value="&lt;div&gt;&lt;font style=&quot;font-size: 24px;&quot;&gt;9&lt;/font&gt;&lt;/div&gt;" style="text;html=1;align=center;verticalAlign=middle;resizable=0;points=[];autosize=1;strokeColor=none;fillColor=none;fontStyle=1" parent="89PQKOFuobvwljje_Hko-198" vertex="1">
          <mxGeometry x="50" y="20" width="40" height="40" as="geometry" />
        </mxCell>
        <mxCell id="89PQKOFuobvwljje_Hko-209" value="&lt;font style=&quot;font-size: 24px;&quot;&gt;A&lt;/font&gt;" style="text;html=1;align=center;verticalAlign=middle;resizable=0;points=[];autosize=1;strokeColor=none;fillColor=none;fontStyle=1" parent="89PQKOFuobvwljje_Hko-198" vertex="1">
          <mxGeometry x="100" y="710" width="40" height="40" as="geometry" />
        </mxCell>
        <mxCell id="89PQKOFuobvwljje_Hko-210" value="&lt;font style=&quot;font-size: 24px;&quot;&gt;B&lt;/font&gt;" style="text;html=1;align=center;verticalAlign=middle;resizable=0;points=[];autosize=1;strokeColor=none;fillColor=none;fontStyle=1" parent="89PQKOFuobvwljje_Hko-198" vertex="1">
          <mxGeometry x="180" y="710" width="40" height="40" as="geometry" />
        </mxCell>
        <mxCell id="89PQKOFuobvwljje_Hko-211" value="&lt;font style=&quot;font-size: 24px;&quot;&gt;C&lt;/font&gt;" style="text;html=1;align=center;verticalAlign=middle;resizable=0;points=[];autosize=1;strokeColor=none;fillColor=none;fontStyle=1" parent="89PQKOFuobvwljje_Hko-198" vertex="1">
          <mxGeometry x="260" y="710" width="40" height="40" as="geometry" />
        </mxCell>
        <mxCell id="89PQKOFuobvwljje_Hko-212" value="&lt;font style=&quot;font-size: 24px;&quot;&gt;D&lt;/font&gt;" style="text;html=1;align=center;verticalAlign=middle;resizable=0;points=[];autosize=1;strokeColor=none;fillColor=none;fontStyle=1" parent="89PQKOFuobvwljje_Hko-198" vertex="1">
          <mxGeometry x="340" y="710" width="40" height="40" as="geometry" />
        </mxCell>
        <mxCell id="89PQKOFuobvwljje_Hko-213" value="&lt;font style=&quot;font-size: 24px;&quot;&gt;E&lt;/font&gt;" style="text;html=1;align=center;verticalAlign=middle;resizable=0;points=[];autosize=1;strokeColor=none;fillColor=none;fontStyle=1" parent="89PQKOFuobvwljje_Hko-198" vertex="1">
          <mxGeometry x="420" y="710" width="40" height="40" as="geometry" />
        </mxCell>
        <mxCell id="89PQKOFuobvwljje_Hko-214" value="&lt;font style=&quot;font-size: 24px;&quot;&gt;F&lt;/font&gt;" style="text;html=1;align=center;verticalAlign=middle;resizable=0;points=[];autosize=1;strokeColor=none;fillColor=none;fontStyle=1" parent="89PQKOFuobvwljje_Hko-198" vertex="1">
          <mxGeometry x="500" y="710" width="40" height="40" as="geometry" />
        </mxCell>
        <mxCell id="89PQKOFuobvwljje_Hko-215" value="&lt;font style=&quot;font-size: 24px;&quot;&gt;G&lt;/font&gt;" style="text;html=1;align=center;verticalAlign=middle;resizable=0;points=[];autosize=1;strokeColor=none;fillColor=none;fontStyle=1" parent="89PQKOFuobvwljje_Hko-198" vertex="1">
          <mxGeometry x="580" y="710" width="40" height="40" as="geometry" />
        </mxCell>
        <mxCell id="89PQKOFuobvwljje_Hko-216" value="&lt;font style=&quot;font-size: 24px;&quot;&gt;H&lt;/font&gt;" style="text;html=1;align=center;verticalAlign=middle;resizable=0;points=[];autosize=1;strokeColor=none;fillColor=none;fontStyle=1" parent="89PQKOFuobvwljje_Hko-198" vertex="1">
          <mxGeometry x="660" y="710" width="40" height="40" as="geometry" />
        </mxCell>
        <mxCell id="89PQKOFuobvwljje_Hko-217" value="&lt;font style=&quot;font-size: 24px;&quot;&gt;I&lt;/font&gt;" style="text;html=1;align=center;verticalAlign=middle;resizable=0;points=[];autosize=1;strokeColor=none;fillColor=none;fontStyle=1" parent="89PQKOFuobvwljje_Hko-198" vertex="1">
          <mxGeometry x="745" y="710" width="30" height="40" as="geometry" />
        </mxCell>
        <mxCell id="89PQKOFuobvwljje_Hko-218" value="Nodes" style="locked=1;" parent="0" />
        <mxCell id="89PQKOFuobvwljje_Hko-220" value="72" style="whiteSpace=wrap;html=1;aspect=fixed;fontColor=#595959;" parent="89PQKOFuobvwljje_Hko-218" vertex="1">
          <mxGeometry x="90" y="10" width="60" height="60" as="geometry" />
        </mxCell>
        <mxCell id="89PQKOFuobvwljje_Hko-221" value="73" style="whiteSpace=wrap;html=1;aspect=fixed;fontColor=#595959;" parent="89PQKOFuobvwljje_Hko-218" vertex="1">
          <mxGeometry x="170" y="10" width="60" height="60" as="geometry" />
        </mxCell>
        <mxCell id="89PQKOFuobvwljje_Hko-222" value="74" style="whiteSpace=wrap;html=1;aspect=fixed;fontColor=#595959;" parent="89PQKOFuobvwljje_Hko-218" vertex="1">
          <mxGeometry x="250" y="10" width="60" height="60" as="geometry" />
        </mxCell>
        <mxCell id="89PQKOFuobvwljje_Hko-223" value="75" style="whiteSpace=wrap;html=1;aspect=fixed;fontColor=#595959;" parent="89PQKOFuobvwljje_Hko-218" vertex="1">
          <mxGeometry x="330" y="10" width="60" height="60" as="geometry" />
        </mxCell>
        <mxCell id="89PQKOFuobvwljje_Hko-224" value="76" style="whiteSpace=wrap;html=1;aspect=fixed;fontColor=#595959;" parent="89PQKOFuobvwljje_Hko-218" vertex="1">
          <mxGeometry x="410" y="10" width="60" height="60" as="geometry" />
        </mxCell>
        <mxCell id="89PQKOFuobvwljje_Hko-225" value="77" style="whiteSpace=wrap;html=1;aspect=fixed;fontColor=#595959;" parent="89PQKOFuobvwljje_Hko-218" vertex="1">
          <mxGeometry x="490" y="10" width="60" height="60" as="geometry" />
        </mxCell>
        <mxCell id="89PQKOFuobvwljje_Hko-226" value="78" style="whiteSpace=wrap;html=1;aspect=fixed;fontColor=#595959;" parent="89PQKOFuobvwljje_Hko-218" vertex="1">
          <mxGeometry x="570" y="10" width="60" height="60" as="geometry" />
        </mxCell>
        <mxCell id="89PQKOFuobvwljje_Hko-227" value="79" style="whiteSpace=wrap;html=1;aspect=fixed;fontColor=#595959;" parent="89PQKOFuobvwljje_Hko-218" vertex="1">
          <mxGeometry x="650" y="10" width="60" height="60" as="geometry" />
        </mxCell>
        <mxCell id="89PQKOFuobvwljje_Hko-228" value="80" style="whiteSpace=wrap;html=1;aspect=fixed;fontColor=#595959;" parent="89PQKOFuobvwljje_Hko-218" vertex="1">
          <mxGeometry x="730" y="10" width="60" height="60" as="geometry" />
        </mxCell>
        <mxCell id="89PQKOFuobvwljje_Hko-229" value="63" style="whiteSpace=wrap;html=1;aspect=fixed;fontColor=#595959;" parent="89PQKOFuobvwljje_Hko-218" vertex="1">
          <mxGeometry x="90" y="90" width="60" height="60" as="geometry" />
        </mxCell>
        <mxCell id="89PQKOFuobvwljje_Hko-230" value="64" style="whiteSpace=wrap;html=1;aspect=fixed;fontColor=#595959;" parent="89PQKOFuobvwljje_Hko-218" vertex="1">
          <mxGeometry x="170" y="90" width="60" height="60" as="geometry" />
        </mxCell>
        <mxCell id="89PQKOFuobvwljje_Hko-231" value="65" style="whiteSpace=wrap;html=1;aspect=fixed;fontColor=#595959;" parent="89PQKOFuobvwljje_Hko-218" vertex="1">
          <mxGeometry x="250" y="90" width="60" height="60" as="geometry" />
        </mxCell>
        <mxCell id="89PQKOFuobvwljje_Hko-232" value="66" style="whiteSpace=wrap;html=1;aspect=fixed;fontColor=#595959;" parent="89PQKOFuobvwljje_Hko-218" vertex="1">
          <mxGeometry x="330" y="90" width="60" height="60" as="geometry" />
        </mxCell>
        <mxCell id="89PQKOFuobvwljje_Hko-233" value="67" style="whiteSpace=wrap;html=1;aspect=fixed;fontColor=#595959;" parent="89PQKOFuobvwljje_Hko-218" vertex="1">
          <mxGeometry x="410" y="90" width="60" height="60" as="geometry" />
        </mxCell>
        <mxCell id="89PQKOFuobvwljje_Hko-234" value="68" style="whiteSpace=wrap;html=1;aspect=fixed;fontColor=#595959;" parent="89PQKOFuobvwljje_Hko-218" vertex="1">
          <mxGeometry x="490" y="90" width="60" height="60" as="geometry" />
        </mxCell>
        <mxCell id="89PQKOFuobvwljje_Hko-235" value="69" style="whiteSpace=wrap;html=1;aspect=fixed;fontColor=#595959;" parent="89PQKOFuobvwljje_Hko-218" vertex="1">
          <mxGeometry x="570" y="90" width="60" height="60" as="geometry" />
        </mxCell>
        <mxCell id="89PQKOFuobvwljje_Hko-236" value="70" style="whiteSpace=wrap;html=1;aspect=fixed;fontColor=#595959;" parent="89PQKOFuobvwljje_Hko-218" vertex="1">
          <mxGeometry x="650" y="90" width="60" height="60" as="geometry" />
        </mxCell>
        <mxCell id="89PQKOFuobvwljje_Hko-237" value="71" style="whiteSpace=wrap;html=1;aspect=fixed;fontColor=#595959;" parent="89PQKOFuobvwljje_Hko-218" vertex="1">
          <mxGeometry x="730" y="90" width="60" height="60" as="geometry" />
        </mxCell>
        <mxCell id="89PQKOFuobvwljje_Hko-238" value="54" style="whiteSpace=wrap;html=1;aspect=fixed;fontColor=#595959;" parent="89PQKOFuobvwljje_Hko-218" vertex="1">
          <mxGeometry x="90" y="170" width="60" height="60" as="geometry" />
        </mxCell>
        <mxCell id="89PQKOFuobvwljje_Hko-239" value="55" style="whiteSpace=wrap;html=1;aspect=fixed;fontColor=#595959;" parent="89PQKOFuobvwljje_Hko-218" vertex="1">
          <mxGeometry x="170" y="170" width="60" height="60" as="geometry" />
        </mxCell>
        <mxCell id="89PQKOFuobvwljje_Hko-240" value="56" style="whiteSpace=wrap;html=1;aspect=fixed;fontColor=#595959;" parent="89PQKOFuobvwljje_Hko-218" vertex="1">
          <mxGeometry x="250" y="170" width="60" height="60" as="geometry" />
        </mxCell>
        <mxCell id="89PQKOFuobvwljje_Hko-241" value="57" style="whiteSpace=wrap;html=1;aspect=fixed;fontColor=#595959;" parent="89PQKOFuobvwljje_Hko-218" vertex="1">
          <mxGeometry x="330" y="170" width="60" height="60" as="geometry" />
        </mxCell>
        <mxCell id="89PQKOFuobvwljje_Hko-242" value="58" style="whiteSpace=wrap;html=1;aspect=fixed;fontColor=#595959;" parent="89PQKOFuobvwljje_Hko-218" vertex="1">
          <mxGeometry x="410" y="170" width="60" height="60" as="geometry" />
        </mxCell>
        <mxCell id="89PQKOFuobvwljje_Hko-243" value="59" style="whiteSpace=wrap;html=1;aspect=fixed;fontColor=#595959;" parent="89PQKOFuobvwljje_Hko-218" vertex="1">
          <mxGeometry x="490" y="170" width="60" height="60" as="geometry" />
        </mxCell>
        <mxCell id="89PQKOFuobvwljje_Hko-244" value="60" style="whiteSpace=wrap;html=1;aspect=fixed;fontColor=#595959;" parent="89PQKOFuobvwljje_Hko-218" vertex="1">
          <mxGeometry x="570" y="170" width="60" height="60" as="geometry" />
        </mxCell>
        <mxCell id="89PQKOFuobvwljje_Hko-245" value="61" style="whiteSpace=wrap;html=1;aspect=fixed;fontColor=#595959;" parent="89PQKOFuobvwljje_Hko-218" vertex="1">
          <mxGeometry x="650" y="170" width="60" height="60" as="geometry" />
        </mxCell>
        <mxCell id="89PQKOFuobvwljje_Hko-246" value="62" style="whiteSpace=wrap;html=1;aspect=fixed;fontColor=#595959;" parent="89PQKOFuobvwljje_Hko-218" vertex="1">
          <mxGeometry x="730" y="170" width="60" height="60" as="geometry" />
        </mxCell>
        <mxCell id="89PQKOFuobvwljje_Hko-247" value="45" style="whiteSpace=wrap;html=1;aspect=fixed;fontColor=#595959;" parent="89PQKOFuobvwljje_Hko-218" vertex="1">
          <mxGeometry x="90" y="250" width="60" height="60" as="geometry" />
        </mxCell>
        <mxCell id="89PQKOFuobvwljje_Hko-248" value="46" style="whiteSpace=wrap;html=1;aspect=fixed;fontColor=#595959;" parent="89PQKOFuobvwljje_Hko-218" vertex="1">
          <mxGeometry x="170" y="250" width="60" height="60" as="geometry" />
        </mxCell>
        <mxCell id="89PQKOFuobvwljje_Hko-249" value="47" style="whiteSpace=wrap;html=1;aspect=fixed;fontColor=#595959;" parent="89PQKOFuobvwljje_Hko-218" vertex="1">
          <mxGeometry x="250" y="250" width="60" height="60" as="geometry" />
        </mxCell>
        <mxCell id="89PQKOFuobvwljje_Hko-250" value="48" style="whiteSpace=wrap;html=1;aspect=fixed;fontColor=#595959;" parent="89PQKOFuobvwljje_Hko-218" vertex="1">
          <mxGeometry x="330" y="250" width="60" height="60" as="geometry" />
        </mxCell>
        <mxCell id="89PQKOFuobvwljje_Hko-251" value="49" style="whiteSpace=wrap;html=1;aspect=fixed;fontColor=#595959;" parent="89PQKOFuobvwljje_Hko-218" vertex="1">
          <mxGeometry x="410" y="250" width="60" height="60" as="geometry" />
        </mxCell>
        <mxCell id="89PQKOFuobvwljje_Hko-252" value="50" style="whiteSpace=wrap;html=1;aspect=fixed;fontColor=#595959;" parent="89PQKOFuobvwljje_Hko-218" vertex="1">
          <mxGeometry x="490" y="250" width="60" height="60" as="geometry" />
        </mxCell>
        <mxCell id="89PQKOFuobvwljje_Hko-253" value="51" style="whiteSpace=wrap;html=1;aspect=fixed;fontColor=#595959;" parent="89PQKOFuobvwljje_Hko-218" vertex="1">
          <mxGeometry x="570" y="250" width="60" height="60" as="geometry" />
        </mxCell>
        <mxCell id="89PQKOFuobvwljje_Hko-254" value="52" style="whiteSpace=wrap;html=1;aspect=fixed;fontColor=#595959;" parent="89PQKOFuobvwljje_Hko-218" vertex="1">
          <mxGeometry x="650" y="250" width="60" height="60" as="geometry" />
        </mxCell>
        <mxCell id="89PQKOFuobvwljje_Hko-255" value="53" style="whiteSpace=wrap;html=1;aspect=fixed;fontColor=#595959;" parent="89PQKOFuobvwljje_Hko-218" vertex="1">
          <mxGeometry x="730" y="250" width="60" height="60" as="geometry" />
        </mxCell>
        <mxCell id="89PQKOFuobvwljje_Hko-256" value="36" style="whiteSpace=wrap;html=1;aspect=fixed;fontColor=#595959;" parent="89PQKOFuobvwljje_Hko-218" vertex="1">
          <mxGeometry x="90" y="330" width="60" height="60" as="geometry" />
        </mxCell>
        <mxCell id="89PQKOFuobvwljje_Hko-257" value="37" style="whiteSpace=wrap;html=1;aspect=fixed;fontColor=#595959;" parent="89PQKOFuobvwljje_Hko-218" vertex="1">
          <mxGeometry x="170" y="330" width="60" height="60" as="geometry" />
        </mxCell>
        <mxCell id="89PQKOFuobvwljje_Hko-258" value="38" style="whiteSpace=wrap;html=1;aspect=fixed;fontColor=#595959;" parent="89PQKOFuobvwljje_Hko-218" vertex="1">
          <mxGeometry x="250" y="330" width="60" height="60" as="geometry" />
        </mxCell>
        <mxCell id="89PQKOFuobvwljje_Hko-259" value="39" style="whiteSpace=wrap;html=1;aspect=fixed;fontColor=#595959;" parent="89PQKOFuobvwljje_Hko-218" vertex="1">
          <mxGeometry x="330" y="330" width="60" height="60" as="geometry" />
        </mxCell>
        <mxCell id="89PQKOFuobvwljje_Hko-260" value="40" style="whiteSpace=wrap;html=1;aspect=fixed;fontColor=#595959;" parent="89PQKOFuobvwljje_Hko-218" vertex="1">
          <mxGeometry x="410" y="330" width="60" height="60" as="geometry" />
        </mxCell>
        <mxCell id="89PQKOFuobvwljje_Hko-261" value="41" style="whiteSpace=wrap;html=1;aspect=fixed;fontColor=#595959;" parent="89PQKOFuobvwljje_Hko-218" vertex="1">
          <mxGeometry x="490" y="330" width="60" height="60" as="geometry" />
        </mxCell>
        <mxCell id="89PQKOFuobvwljje_Hko-262" value="&lt;div&gt;42&lt;/div&gt;" style="whiteSpace=wrap;html=1;aspect=fixed;fontColor=#595959;" parent="89PQKOFuobvwljje_Hko-218" vertex="1">
          <mxGeometry x="570" y="330" width="60" height="60" as="geometry" />
        </mxCell>
        <mxCell id="89PQKOFuobvwljje_Hko-263" value="43" style="whiteSpace=wrap;html=1;aspect=fixed;fontColor=#595959;" parent="89PQKOFuobvwljje_Hko-218" vertex="1">
          <mxGeometry x="650" y="330" width="60" height="60" as="geometry" />
        </mxCell>
        <mxCell id="89PQKOFuobvwljje_Hko-264" value="44" style="whiteSpace=wrap;html=1;aspect=fixed;fontColor=#595959;" parent="89PQKOFuobvwljje_Hko-218" vertex="1">
          <mxGeometry x="730" y="330" width="60" height="60" as="geometry" />
        </mxCell>
        <mxCell id="89PQKOFuobvwljje_Hko-265" value="27" style="whiteSpace=wrap;html=1;aspect=fixed;fontColor=#595959;" parent="89PQKOFuobvwljje_Hko-218" vertex="1">
          <mxGeometry x="90" y="410" width="60" height="60" as="geometry" />
        </mxCell>
        <mxCell id="89PQKOFuobvwljje_Hko-266" value="28" style="whiteSpace=wrap;html=1;aspect=fixed;fontColor=#595959;" parent="89PQKOFuobvwljje_Hko-218" vertex="1">
          <mxGeometry x="170" y="410" width="60" height="60" as="geometry" />
        </mxCell>
        <mxCell id="89PQKOFuobvwljje_Hko-267" value="29" style="whiteSpace=wrap;html=1;aspect=fixed;fontColor=#595959;" parent="89PQKOFuobvwljje_Hko-218" vertex="1">
          <mxGeometry x="250" y="410" width="60" height="60" as="geometry" />
        </mxCell>
        <mxCell id="89PQKOFuobvwljje_Hko-268" value="30" style="whiteSpace=wrap;html=1;aspect=fixed;fontColor=#595959;" parent="89PQKOFuobvwljje_Hko-218" vertex="1">
          <mxGeometry x="330" y="410" width="60" height="60" as="geometry" />
        </mxCell>
        <mxCell id="89PQKOFuobvwljje_Hko-269" value="31" style="whiteSpace=wrap;html=1;aspect=fixed;fontColor=#595959;" parent="89PQKOFuobvwljje_Hko-218" vertex="1">
          <mxGeometry x="410" y="410" width="60" height="60" as="geometry" />
        </mxCell>
        <mxCell id="89PQKOFuobvwljje_Hko-270" value="32" style="whiteSpace=wrap;html=1;aspect=fixed;fontColor=#595959;" parent="89PQKOFuobvwljje_Hko-218" vertex="1">
          <mxGeometry x="490" y="410" width="60" height="60" as="geometry" />
        </mxCell>
        <mxCell id="89PQKOFuobvwljje_Hko-271" value="33" style="whiteSpace=wrap;html=1;aspect=fixed;fontColor=#595959;" parent="89PQKOFuobvwljje_Hko-218" vertex="1">
          <mxGeometry x="570" y="410" width="60" height="60" as="geometry" />
        </mxCell>
        <mxCell id="89PQKOFuobvwljje_Hko-272" value="34" style="whiteSpace=wrap;html=1;aspect=fixed;fontColor=#595959;" parent="89PQKOFuobvwljje_Hko-218" vertex="1">
          <mxGeometry x="650" y="410" width="60" height="60" as="geometry" />
        </mxCell>
        <mxCell id="89PQKOFuobvwljje_Hko-273" value="35" style="whiteSpace=wrap;html=1;aspect=fixed;fontColor=#595959;" parent="89PQKOFuobvwljje_Hko-218" vertex="1">
          <mxGeometry x="730" y="410" width="60" height="60" as="geometry" />
        </mxCell>
        <mxCell id="89PQKOFuobvwljje_Hko-274" value="18" style="whiteSpace=wrap;html=1;aspect=fixed;fontColor=#595959;" parent="89PQKOFuobvwljje_Hko-218" vertex="1">
          <mxGeometry x="90" y="490" width="60" height="60" as="geometry" />
        </mxCell>
        <mxCell id="89PQKOFuobvwljje_Hko-275" value="19" style="whiteSpace=wrap;html=1;aspect=fixed;fontColor=#595959;" parent="89PQKOFuobvwljje_Hko-218" vertex="1">
          <mxGeometry x="170" y="490" width="60" height="60" as="geometry" />
        </mxCell>
        <mxCell id="89PQKOFuobvwljje_Hko-276" value="20" style="whiteSpace=wrap;html=1;aspect=fixed;fontColor=#595959;" parent="89PQKOFuobvwljje_Hko-218" vertex="1">
          <mxGeometry x="250" y="490" width="60" height="60" as="geometry" />
        </mxCell>
        <mxCell id="89PQKOFuobvwljje_Hko-277" value="21" style="whiteSpace=wrap;html=1;aspect=fixed;fontColor=#595959;" parent="89PQKOFuobvwljje_Hko-218" vertex="1">
          <mxGeometry x="330" y="490" width="60" height="60" as="geometry" />
        </mxCell>
        <mxCell id="89PQKOFuobvwljje_Hko-278" value="22" style="whiteSpace=wrap;html=1;aspect=fixed;fontColor=#595959;" parent="89PQKOFuobvwljje_Hko-218" vertex="1">
          <mxGeometry x="410" y="490" width="60" height="60" as="geometry" />
        </mxCell>
        <mxCell id="89PQKOFuobvwljje_Hko-279" value="23" style="whiteSpace=wrap;html=1;aspect=fixed;fontColor=#595959;" parent="89PQKOFuobvwljje_Hko-218" vertex="1">
          <mxGeometry x="490" y="490" width="60" height="60" as="geometry" />
        </mxCell>
        <mxCell id="89PQKOFuobvwljje_Hko-280" value="24" style="whiteSpace=wrap;html=1;aspect=fixed;fontColor=#595959;" parent="89PQKOFuobvwljje_Hko-218" vertex="1">
          <mxGeometry x="570" y="490" width="60" height="60" as="geometry" />
        </mxCell>
        <mxCell id="89PQKOFuobvwljje_Hko-281" value="25" style="whiteSpace=wrap;html=1;aspect=fixed;fontColor=#595959;" parent="89PQKOFuobvwljje_Hko-218" vertex="1">
          <mxGeometry x="650" y="490" width="60" height="60" as="geometry" />
        </mxCell>
        <mxCell id="89PQKOFuobvwljje_Hko-282" value="26" style="whiteSpace=wrap;html=1;aspect=fixed;fontColor=#595959;" parent="89PQKOFuobvwljje_Hko-218" vertex="1">
          <mxGeometry x="730" y="490" width="60" height="60" as="geometry" />
        </mxCell>
        <mxCell id="89PQKOFuobvwljje_Hko-283" value="9" style="whiteSpace=wrap;html=1;aspect=fixed;fontColor=#595959;" parent="89PQKOFuobvwljje_Hko-218" vertex="1">
          <mxGeometry x="90" y="570" width="60" height="60" as="geometry" />
        </mxCell>
        <mxCell id="89PQKOFuobvwljje_Hko-284" value="10" style="whiteSpace=wrap;html=1;aspect=fixed;fontColor=#595959;" parent="89PQKOFuobvwljje_Hko-218" vertex="1">
          <mxGeometry x="170" y="570" width="60" height="60" as="geometry" />
        </mxCell>
        <mxCell id="89PQKOFuobvwljje_Hko-285" value="11" style="whiteSpace=wrap;html=1;aspect=fixed;fontColor=#595959;" parent="89PQKOFuobvwljje_Hko-218" vertex="1">
          <mxGeometry x="250" y="570" width="60" height="60" as="geometry" />
        </mxCell>
        <mxCell id="89PQKOFuobvwljje_Hko-286" value="12" style="whiteSpace=wrap;html=1;aspect=fixed;fontColor=#595959;" parent="89PQKOFuobvwljje_Hko-218" vertex="1">
          <mxGeometry x="330" y="570" width="60" height="60" as="geometry" />
        </mxCell>
        <mxCell id="89PQKOFuobvwljje_Hko-287" value="13" style="whiteSpace=wrap;html=1;aspect=fixed;fontColor=#595959;" parent="89PQKOFuobvwljje_Hko-218" vertex="1">
          <mxGeometry x="410" y="570" width="60" height="60" as="geometry" />
        </mxCell>
        <mxCell id="89PQKOFuobvwljje_Hko-288" value="14" style="whiteSpace=wrap;html=1;aspect=fixed;fontColor=#595959;" parent="89PQKOFuobvwljje_Hko-218" vertex="1">
          <mxGeometry x="490" y="570" width="60" height="60" as="geometry" />
        </mxCell>
        <mxCell id="89PQKOFuobvwljje_Hko-289" value="15" style="whiteSpace=wrap;html=1;aspect=fixed;fontColor=#595959;" parent="89PQKOFuobvwljje_Hko-218" vertex="1">
          <mxGeometry x="570" y="570" width="60" height="60" as="geometry" />
        </mxCell>
        <mxCell id="89PQKOFuobvwljje_Hko-290" value="16" style="whiteSpace=wrap;html=1;aspect=fixed;fontColor=#595959;" parent="89PQKOFuobvwljje_Hko-218" vertex="1">
          <mxGeometry x="650" y="570" width="60" height="60" as="geometry" />
        </mxCell>
        <mxCell id="89PQKOFuobvwljje_Hko-291" value="17" style="whiteSpace=wrap;html=1;aspect=fixed;fontColor=#595959;" parent="89PQKOFuobvwljje_Hko-218" vertex="1">
          <mxGeometry x="730" y="570" width="60" height="60" as="geometry" />
        </mxCell>
        <mxCell id="89PQKOFuobvwljje_Hko-292" value="0" style="whiteSpace=wrap;html=1;aspect=fixed;fontColor=#595959;" parent="89PQKOFuobvwljje_Hko-218" vertex="1">
          <mxGeometry x="90" y="650" width="60" height="60" as="geometry" />
        </mxCell>
        <mxCell id="89PQKOFuobvwljje_Hko-293" value="1" style="whiteSpace=wrap;html=1;aspect=fixed;fontColor=#595959;" parent="89PQKOFuobvwljje_Hko-218" vertex="1">
          <mxGeometry x="170" y="650" width="60" height="60" as="geometry" />
        </mxCell>
        <mxCell id="89PQKOFuobvwljje_Hko-294" value="2" style="whiteSpace=wrap;html=1;aspect=fixed;fontColor=#595959;" parent="89PQKOFuobvwljje_Hko-218" vertex="1">
          <mxGeometry x="250" y="650" width="60" height="60" as="geometry" />
        </mxCell>
        <mxCell id="89PQKOFuobvwljje_Hko-295" value="3" style="whiteSpace=wrap;html=1;aspect=fixed;fontColor=#595959;" parent="89PQKOFuobvwljje_Hko-218" vertex="1">
          <mxGeometry x="330" y="650" width="60" height="60" as="geometry" />
        </mxCell>
        <mxCell id="89PQKOFuobvwljje_Hko-296" value="4" style="whiteSpace=wrap;html=1;aspect=fixed;fontColor=#595959;" parent="89PQKOFuobvwljje_Hko-218" vertex="1">
          <mxGeometry x="410" y="650" width="60" height="60" as="geometry" />
        </mxCell>
        <mxCell id="89PQKOFuobvwljje_Hko-297" value="5" style="whiteSpace=wrap;html=1;aspect=fixed;fontColor=#595959;" parent="89PQKOFuobvwljje_Hko-218" vertex="1">
          <mxGeometry x="490" y="650" width="60" height="60" as="geometry" />
        </mxCell>
        <mxCell id="89PQKOFuobvwljje_Hko-298" value="6" style="whiteSpace=wrap;html=1;aspect=fixed;fontColor=#595959;" parent="89PQKOFuobvwljje_Hko-218" vertex="1">
          <mxGeometry x="570" y="650" width="60" height="60" as="geometry" />
        </mxCell>
        <mxCell id="89PQKOFuobvwljje_Hko-299" value="7" style="whiteSpace=wrap;html=1;aspect=fixed;fontColor=#595959;" parent="89PQKOFuobvwljje_Hko-218" vertex="1">
          <mxGeometry x="650" y="650" width="60" height="60" as="geometry" />
        </mxCell>
        <mxCell id="89PQKOFuobvwljje_Hko-300" value="8" style="whiteSpace=wrap;html=1;aspect=fixed;fontColor=#595959;" parent="89PQKOFuobvwljje_Hko-218" vertex="1">
          <mxGeometry x="730" y="650" width="60" height="60" as="geometry" />
        </mxCell>
        <mxCell id="89PQKOFuobvwljje_Hko-301" value="Wall Coordinates" style="locked=1;" parent="0" />
        <mxCell id="89PQKOFuobvwljje_Hko-302" value="0" style="text;html=1;align=center;verticalAlign=middle;resizable=0;points=[];autosize=1;strokeColor=none;fillColor=none;fontSize=12;fontStyle=3" parent="89PQKOFuobvwljje_Hko-301" vertex="1">
          <mxGeometry x="144" y="622" width="30" height="30" as="geometry" />
        </mxCell>
        <mxCell id="89PQKOFuobvwljje_Hko-304" value="1" style="text;html=1;align=center;verticalAlign=middle;resizable=0;points=[];autosize=1;strokeColor=none;fillColor=none;fontSize=12;fontStyle=3" parent="89PQKOFuobvwljje_Hko-301" vertex="1">
          <mxGeometry x="224" y="622" width="30" height="30" as="geometry" />
        </mxCell>
        <mxCell id="89PQKOFuobvwljje_Hko-305" value="2" style="text;html=1;align=center;verticalAlign=middle;resizable=0;points=[];autosize=1;strokeColor=none;fillColor=none;fontSize=12;fontStyle=3" parent="89PQKOFuobvwljje_Hko-301" vertex="1">
          <mxGeometry x="304" y="622" width="30" height="30" as="geometry" />
        </mxCell>
        <mxCell id="89PQKOFuobvwljje_Hko-306" value="3" style="text;html=1;align=center;verticalAlign=middle;resizable=0;points=[];autosize=1;strokeColor=none;fillColor=none;fontSize=12;fontStyle=3" parent="89PQKOFuobvwljje_Hko-301" vertex="1">
          <mxGeometry x="384" y="622" width="30" height="30" as="geometry" />
        </mxCell>
        <mxCell id="89PQKOFuobvwljje_Hko-307" value="4" style="text;html=1;align=center;verticalAlign=middle;resizable=0;points=[];autosize=1;strokeColor=none;fillColor=none;fontSize=12;fontStyle=3" parent="89PQKOFuobvwljje_Hko-301" vertex="1">
          <mxGeometry x="464" y="622" width="30" height="30" as="geometry" />
        </mxCell>
        <mxCell id="89PQKOFuobvwljje_Hko-308" value="5" style="text;html=1;align=center;verticalAlign=middle;resizable=0;points=[];autosize=1;strokeColor=none;fillColor=none;fontSize=12;fontStyle=3" parent="89PQKOFuobvwljje_Hko-301" vertex="1">
          <mxGeometry x="544" y="622" width="30" height="30" as="geometry" />
        </mxCell>
        <mxCell id="89PQKOFuobvwljje_Hko-309" value="6" style="text;html=1;align=center;verticalAlign=middle;resizable=0;points=[];autosize=1;strokeColor=none;fillColor=none;fontSize=12;fontStyle=3" parent="89PQKOFuobvwljje_Hko-301" vertex="1">
          <mxGeometry x="624" y="622" width="30" height="30" as="geometry" />
        </mxCell>
        <mxCell id="89PQKOFuobvwljje_Hko-310" value="7" style="text;html=1;align=center;verticalAlign=middle;resizable=0;points=[];autosize=1;strokeColor=none;fillColor=none;fontSize=12;fontStyle=3" parent="89PQKOFuobvwljje_Hko-301" vertex="1">
          <mxGeometry x="704" y="622" width="30" height="30" as="geometry" />
        </mxCell>
        <mxCell id="89PQKOFuobvwljje_Hko-311" value="8" style="text;html=1;align=center;verticalAlign=middle;resizable=0;points=[];autosize=1;strokeColor=none;fillColor=none;fontSize=12;fontStyle=3;fontColor=#949494;" parent="89PQKOFuobvwljje_Hko-301" vertex="1">
          <mxGeometry x="785" y="622" width="30" height="30" as="geometry" />
        </mxCell>
        <mxCell id="89PQKOFuobvwljje_Hko-312" value="9" style="text;html=1;align=center;verticalAlign=middle;resizable=0;points=[];autosize=1;strokeColor=none;fillColor=none;fontSize=12;fontStyle=3" parent="89PQKOFuobvwljje_Hko-301" vertex="1">
          <mxGeometry x="143.5" y="543" width="30" height="30" as="geometry" />
        </mxCell>
        <mxCell id="89PQKOFuobvwljje_Hko-313" value="10" style="text;html=1;align=center;verticalAlign=middle;resizable=0;points=[];autosize=1;strokeColor=none;fillColor=none;fontSize=12;fontStyle=3" parent="89PQKOFuobvwljje_Hko-301" vertex="1">
          <mxGeometry x="218.5" y="543" width="40" height="30" as="geometry" />
        </mxCell>
        <mxCell id="89PQKOFuobvwljje_Hko-314" value="11" style="text;html=1;align=center;verticalAlign=middle;resizable=0;points=[];autosize=1;strokeColor=none;fillColor=none;fontSize=12;fontStyle=3" parent="89PQKOFuobvwljje_Hko-301" vertex="1">
          <mxGeometry x="298.5" y="543" width="40" height="30" as="geometry" />
        </mxCell>
        <mxCell id="89PQKOFuobvwljje_Hko-315" value="12" style="text;html=1;align=center;verticalAlign=middle;resizable=0;points=[];autosize=1;strokeColor=none;fillColor=none;fontSize=12;fontStyle=3" parent="89PQKOFuobvwljje_Hko-301" vertex="1">
          <mxGeometry x="378.5" y="543" width="40" height="30" as="geometry" />
        </mxCell>
        <mxCell id="89PQKOFuobvwljje_Hko-316" value="13" style="text;html=1;align=center;verticalAlign=middle;resizable=0;points=[];autosize=1;strokeColor=none;fillColor=none;fontSize=12;fontStyle=3" parent="89PQKOFuobvwljje_Hko-301" vertex="1">
          <mxGeometry x="458.5" y="543" width="40" height="30" as="geometry" />
        </mxCell>
        <mxCell id="89PQKOFuobvwljje_Hko-317" value="14" style="text;html=1;align=center;verticalAlign=middle;resizable=0;points=[];autosize=1;strokeColor=none;fillColor=none;fontSize=12;fontStyle=3" parent="89PQKOFuobvwljje_Hko-301" vertex="1">
          <mxGeometry x="538.5" y="543" width="40" height="30" as="geometry" />
        </mxCell>
        <mxCell id="89PQKOFuobvwljje_Hko-318" value="15" style="text;html=1;align=center;verticalAlign=middle;resizable=0;points=[];autosize=1;strokeColor=none;fillColor=none;fontSize=12;fontStyle=3" parent="89PQKOFuobvwljje_Hko-301" vertex="1">
          <mxGeometry x="618.5" y="543" width="40" height="30" as="geometry" />
        </mxCell>
        <mxCell id="89PQKOFuobvwljje_Hko-319" value="16" style="text;html=1;align=center;verticalAlign=middle;resizable=0;points=[];autosize=1;strokeColor=none;fillColor=none;fontSize=12;fontStyle=3" parent="89PQKOFuobvwljje_Hko-301" vertex="1">
          <mxGeometry x="698.5" y="543" width="40" height="30" as="geometry" />
        </mxCell>
        <mxCell id="89PQKOFuobvwljje_Hko-320" value="17" style="text;html=1;align=center;verticalAlign=middle;resizable=0;points=[];autosize=1;strokeColor=none;fillColor=none;fontSize=12;fontStyle=3;fontColor=#949494;" parent="89PQKOFuobvwljje_Hko-301" vertex="1">
          <mxGeometry x="779.5" y="543" width="40" height="30" as="geometry" />
        </mxCell>
        <mxCell id="89PQKOFuobvwljje_Hko-321" value="18" style="text;html=1;align=center;verticalAlign=middle;resizable=0;points=[];autosize=1;strokeColor=none;fillColor=none;fontSize=12;fontStyle=3" parent="89PQKOFuobvwljje_Hko-301" vertex="1">
          <mxGeometry x="138" y="463" width="40" height="30" as="geometry" />
        </mxCell>
        <mxCell id="89PQKOFuobvwljje_Hko-322" value="19" style="text;html=1;align=center;verticalAlign=middle;resizable=0;points=[];autosize=1;strokeColor=none;fillColor=none;fontSize=12;fontStyle=3" parent="89PQKOFuobvwljje_Hko-301" vertex="1">
          <mxGeometry x="218" y="463" width="40" height="30" as="geometry" />
        </mxCell>
        <mxCell id="89PQKOFuobvwljje_Hko-323" value="20" style="text;html=1;align=center;verticalAlign=middle;resizable=0;points=[];autosize=1;strokeColor=none;fillColor=none;fontSize=12;fontStyle=3" parent="89PQKOFuobvwljje_Hko-301" vertex="1">
          <mxGeometry x="298" y="463" width="40" height="30" as="geometry" />
        </mxCell>
        <mxCell id="89PQKOFuobvwljje_Hko-324" value="21" style="text;html=1;align=center;verticalAlign=middle;resizable=0;points=[];autosize=1;strokeColor=none;fillColor=none;fontSize=12;fontStyle=3" parent="89PQKOFuobvwljje_Hko-301" vertex="1">
          <mxGeometry x="378" y="463" width="40" height="30" as="geometry" />
        </mxCell>
        <mxCell id="89PQKOFuobvwljje_Hko-325" value="22" style="text;html=1;align=center;verticalAlign=middle;resizable=0;points=[];autosize=1;strokeColor=none;fillColor=none;fontSize=12;fontStyle=3" parent="89PQKOFuobvwljje_Hko-301" vertex="1">
          <mxGeometry x="458" y="463" width="40" height="30" as="geometry" />
        </mxCell>
        <mxCell id="89PQKOFuobvwljje_Hko-326" value="23" style="text;html=1;align=center;verticalAlign=middle;resizable=0;points=[];autosize=1;strokeColor=none;fillColor=none;fontSize=12;fontStyle=3" parent="89PQKOFuobvwljje_Hko-301" vertex="1">
          <mxGeometry x="538" y="463" width="40" height="30" as="geometry" />
        </mxCell>
        <mxCell id="89PQKOFuobvwljje_Hko-327" value="24" style="text;html=1;align=center;verticalAlign=middle;resizable=0;points=[];autosize=1;strokeColor=none;fillColor=none;fontSize=12;fontStyle=3" parent="89PQKOFuobvwljje_Hko-301" vertex="1">
          <mxGeometry x="618" y="463" width="40" height="30" as="geometry" />
        </mxCell>
        <mxCell id="89PQKOFuobvwljje_Hko-328" value="25" style="text;html=1;align=center;verticalAlign=middle;resizable=0;points=[];autosize=1;strokeColor=none;fillColor=none;fontSize=12;fontStyle=3" parent="89PQKOFuobvwljje_Hko-301" vertex="1">
          <mxGeometry x="698" y="463" width="40" height="30" as="geometry" />
        </mxCell>
        <mxCell id="89PQKOFuobvwljje_Hko-329" value="26" style="text;html=1;align=center;verticalAlign=middle;resizable=0;points=[];autosize=1;strokeColor=none;fillColor=none;fontSize=12;fontStyle=3;fontColor=#949494;" parent="89PQKOFuobvwljje_Hko-301" vertex="1">
          <mxGeometry x="779" y="463" width="40" height="30" as="geometry" />
        </mxCell>
        <mxCell id="89PQKOFuobvwljje_Hko-330" value="27" style="text;html=1;align=center;verticalAlign=middle;resizable=0;points=[];autosize=1;strokeColor=none;fillColor=none;fontSize=12;fontStyle=3" parent="89PQKOFuobvwljje_Hko-301" vertex="1">
          <mxGeometry x="137.5" y="383" width="40" height="30" as="geometry" />
        </mxCell>
        <mxCell id="89PQKOFuobvwljje_Hko-331" value="28" style="text;html=1;align=center;verticalAlign=middle;resizable=0;points=[];autosize=1;strokeColor=none;fillColor=none;fontSize=12;fontStyle=3" parent="89PQKOFuobvwljje_Hko-301" vertex="1">
          <mxGeometry x="217.5" y="383" width="40" height="30" as="geometry" />
        </mxCell>
        <mxCell id="89PQKOFuobvwljje_Hko-332" value="29" style="text;html=1;align=center;verticalAlign=middle;resizable=0;points=[];autosize=1;strokeColor=none;fillColor=none;fontSize=12;fontStyle=3" parent="89PQKOFuobvwljje_Hko-301" vertex="1">
          <mxGeometry x="297.5" y="383" width="40" height="30" as="geometry" />
        </mxCell>
        <mxCell id="89PQKOFuobvwljje_Hko-333" value="30" style="text;html=1;align=center;verticalAlign=middle;resizable=0;points=[];autosize=1;strokeColor=none;fillColor=none;fontSize=12;fontStyle=3" parent="89PQKOFuobvwljje_Hko-301" vertex="1">
          <mxGeometry x="377.5" y="383" width="40" height="30" as="geometry" />
        </mxCell>
        <mxCell id="89PQKOFuobvwljje_Hko-334" value="31" style="text;html=1;align=center;verticalAlign=middle;resizable=0;points=[];autosize=1;strokeColor=none;fillColor=none;fontSize=12;fontStyle=3" parent="89PQKOFuobvwljje_Hko-301" vertex="1">
          <mxGeometry x="457.5" y="383" width="40" height="30" as="geometry" />
        </mxCell>
        <mxCell id="89PQKOFuobvwljje_Hko-335" value="32" style="text;html=1;align=center;verticalAlign=middle;resizable=0;points=[];autosize=1;strokeColor=none;fillColor=none;fontSize=12;fontStyle=3" parent="89PQKOFuobvwljje_Hko-301" vertex="1">
          <mxGeometry x="537.5" y="383" width="40" height="30" as="geometry" />
        </mxCell>
        <mxCell id="89PQKOFuobvwljje_Hko-336" value="33" style="text;html=1;align=center;verticalAlign=middle;resizable=0;points=[];autosize=1;strokeColor=none;fillColor=none;fontSize=12;fontStyle=3" parent="89PQKOFuobvwljje_Hko-301" vertex="1">
          <mxGeometry x="617.5" y="383" width="40" height="30" as="geometry" />
        </mxCell>
        <mxCell id="89PQKOFuobvwljje_Hko-337" value="34" style="text;html=1;align=center;verticalAlign=middle;resizable=0;points=[];autosize=1;strokeColor=none;fillColor=none;fontSize=12;fontStyle=3" parent="89PQKOFuobvwljje_Hko-301" vertex="1">
          <mxGeometry x="697.5" y="383" width="40" height="30" as="geometry" />
        </mxCell>
        <mxCell id="89PQKOFuobvwljje_Hko-338" value="35" style="text;html=1;align=center;verticalAlign=middle;resizable=0;points=[];autosize=1;strokeColor=none;fillColor=none;fontSize=12;fontStyle=3;fontColor=#949494;" parent="89PQKOFuobvwljje_Hko-301" vertex="1">
          <mxGeometry x="778.5" y="383" width="40" height="30" as="geometry" />
        </mxCell>
        <mxCell id="89PQKOFuobvwljje_Hko-339" value="36" style="text;html=1;align=center;verticalAlign=middle;resizable=0;points=[];autosize=1;strokeColor=none;fillColor=none;fontSize=12;fontStyle=3" parent="89PQKOFuobvwljje_Hko-301" vertex="1">
          <mxGeometry x="139" y="304" width="40" height="30" as="geometry" />
        </mxCell>
        <mxCell id="89PQKOFuobvwljje_Hko-340" value="37" style="text;html=1;align=center;verticalAlign=middle;resizable=0;points=[];autosize=1;strokeColor=none;fillColor=none;fontSize=12;fontStyle=3" parent="89PQKOFuobvwljje_Hko-301" vertex="1">
          <mxGeometry x="219" y="304" width="40" height="30" as="geometry" />
        </mxCell>
        <mxCell id="89PQKOFuobvwljje_Hko-341" value="38" style="text;html=1;align=center;verticalAlign=middle;resizable=0;points=[];autosize=1;strokeColor=none;fillColor=none;fontSize=12;fontStyle=3" parent="89PQKOFuobvwljje_Hko-301" vertex="1">
          <mxGeometry x="299" y="304" width="40" height="30" as="geometry" />
        </mxCell>
        <mxCell id="89PQKOFuobvwljje_Hko-342" value="39" style="text;html=1;align=center;verticalAlign=middle;resizable=0;points=[];autosize=1;strokeColor=none;fillColor=none;fontSize=12;fontStyle=3" parent="89PQKOFuobvwljje_Hko-301" vertex="1">
          <mxGeometry x="379" y="304" width="40" height="30" as="geometry" />
        </mxCell>
        <mxCell id="89PQKOFuobvwljje_Hko-343" value="40" style="text;html=1;align=center;verticalAlign=middle;resizable=0;points=[];autosize=1;strokeColor=none;fillColor=none;fontSize=12;fontStyle=3" parent="89PQKOFuobvwljje_Hko-301" vertex="1">
          <mxGeometry x="459" y="304" width="40" height="30" as="geometry" />
        </mxCell>
        <mxCell id="89PQKOFuobvwljje_Hko-344" value="41" style="text;html=1;align=center;verticalAlign=middle;resizable=0;points=[];autosize=1;strokeColor=none;fillColor=none;fontSize=12;fontStyle=3" parent="89PQKOFuobvwljje_Hko-301" vertex="1">
          <mxGeometry x="539" y="304" width="40" height="30" as="geometry" />
        </mxCell>
        <mxCell id="89PQKOFuobvwljje_Hko-345" value="42" style="text;html=1;align=center;verticalAlign=middle;resizable=0;points=[];autosize=1;strokeColor=none;fillColor=none;fontSize=12;fontStyle=3" parent="89PQKOFuobvwljje_Hko-301" vertex="1">
          <mxGeometry x="619" y="304" width="40" height="30" as="geometry" />
        </mxCell>
        <mxCell id="89PQKOFuobvwljje_Hko-346" value="43" style="text;html=1;align=center;verticalAlign=middle;resizable=0;points=[];autosize=1;strokeColor=none;fillColor=none;fontSize=12;fontStyle=3" parent="89PQKOFuobvwljje_Hko-301" vertex="1">
          <mxGeometry x="699" y="304" width="40" height="30" as="geometry" />
        </mxCell>
        <mxCell id="89PQKOFuobvwljje_Hko-347" value="&lt;div&gt;44&lt;/div&gt;" style="text;html=1;align=center;verticalAlign=middle;resizable=0;points=[];autosize=1;strokeColor=none;fillColor=none;fontSize=12;fontStyle=3;fontColor=#949494;" parent="89PQKOFuobvwljje_Hko-301" vertex="1">
          <mxGeometry x="780" y="304" width="40" height="30" as="geometry" />
        </mxCell>
        <mxCell id="89PQKOFuobvwljje_Hko-348" value="45" style="text;html=1;align=center;verticalAlign=middle;resizable=0;points=[];autosize=1;strokeColor=none;fillColor=none;fontSize=12;fontStyle=3" parent="89PQKOFuobvwljje_Hko-301" vertex="1">
          <mxGeometry x="140" y="223" width="40" height="30" as="geometry" />
        </mxCell>
        <mxCell id="89PQKOFuobvwljje_Hko-349" value="46" style="text;html=1;align=center;verticalAlign=middle;resizable=0;points=[];autosize=1;strokeColor=none;fillColor=none;fontSize=12;fontStyle=3" parent="89PQKOFuobvwljje_Hko-301" vertex="1">
          <mxGeometry x="220" y="223" width="40" height="30" as="geometry" />
        </mxCell>
        <mxCell id="89PQKOFuobvwljje_Hko-350" value="47" style="text;html=1;align=center;verticalAlign=middle;resizable=0;points=[];autosize=1;strokeColor=none;fillColor=none;fontSize=12;fontStyle=3" parent="89PQKOFuobvwljje_Hko-301" vertex="1">
          <mxGeometry x="300" y="223" width="40" height="30" as="geometry" />
        </mxCell>
        <mxCell id="89PQKOFuobvwljje_Hko-351" value="48" style="text;html=1;align=center;verticalAlign=middle;resizable=0;points=[];autosize=1;strokeColor=none;fillColor=none;fontSize=12;fontStyle=3" parent="89PQKOFuobvwljje_Hko-301" vertex="1">
          <mxGeometry x="380" y="223" width="40" height="30" as="geometry" />
        </mxCell>
        <mxCell id="89PQKOFuobvwljje_Hko-352" value="49" style="text;html=1;align=center;verticalAlign=middle;resizable=0;points=[];autosize=1;strokeColor=none;fillColor=none;fontSize=12;fontStyle=3" parent="89PQKOFuobvwljje_Hko-301" vertex="1">
          <mxGeometry x="460" y="223" width="40" height="30" as="geometry" />
        </mxCell>
        <mxCell id="89PQKOFuobvwljje_Hko-353" value="50" style="text;html=1;align=center;verticalAlign=middle;resizable=0;points=[];autosize=1;strokeColor=none;fillColor=none;fontSize=12;fontStyle=3" parent="89PQKOFuobvwljje_Hko-301" vertex="1">
          <mxGeometry x="540" y="223" width="40" height="30" as="geometry" />
        </mxCell>
        <mxCell id="89PQKOFuobvwljje_Hko-354" value="51" style="text;html=1;align=center;verticalAlign=middle;resizable=0;points=[];autosize=1;strokeColor=none;fillColor=none;fontSize=12;fontStyle=3" parent="89PQKOFuobvwljje_Hko-301" vertex="1">
          <mxGeometry x="620" y="223" width="40" height="30" as="geometry" />
        </mxCell>
        <mxCell id="89PQKOFuobvwljje_Hko-355" value="52" style="text;html=1;align=center;verticalAlign=middle;resizable=0;points=[];autosize=1;strokeColor=none;fillColor=none;fontSize=12;fontStyle=3" parent="89PQKOFuobvwljje_Hko-301" vertex="1">
          <mxGeometry x="700" y="223" width="40" height="30" as="geometry" />
        </mxCell>
        <mxCell id="89PQKOFuobvwljje_Hko-356" value="53" style="text;html=1;align=center;verticalAlign=middle;resizable=0;points=[];autosize=1;strokeColor=none;fillColor=none;fontSize=12;fontStyle=3;fontColor=#949494;" parent="89PQKOFuobvwljje_Hko-301" vertex="1">
          <mxGeometry x="781" y="223" width="40" height="30" as="geometry" />
        </mxCell>
        <mxCell id="89PQKOFuobvwljje_Hko-357" value="54" style="text;html=1;align=center;verticalAlign=middle;resizable=0;points=[];autosize=1;strokeColor=none;fillColor=none;fontSize=12;fontStyle=3" parent="89PQKOFuobvwljje_Hko-301" vertex="1">
          <mxGeometry x="140.5" y="145" width="40" height="30" as="geometry" />
        </mxCell>
        <mxCell id="89PQKOFuobvwljje_Hko-358" value="55" style="text;html=1;align=center;verticalAlign=middle;resizable=0;points=[];autosize=1;strokeColor=none;fillColor=none;fontSize=12;fontStyle=3" parent="89PQKOFuobvwljje_Hko-301" vertex="1">
          <mxGeometry x="220.5" y="145" width="40" height="30" as="geometry" />
        </mxCell>
        <mxCell id="89PQKOFuobvwljje_Hko-359" value="56" style="text;html=1;align=center;verticalAlign=middle;resizable=0;points=[];autosize=1;strokeColor=none;fillColor=none;fontSize=12;fontStyle=3" parent="89PQKOFuobvwljje_Hko-301" vertex="1">
          <mxGeometry x="300.5" y="145" width="40" height="30" as="geometry" />
        </mxCell>
        <mxCell id="89PQKOFuobvwljje_Hko-360" value="57" style="text;html=1;align=center;verticalAlign=middle;resizable=0;points=[];autosize=1;strokeColor=none;fillColor=none;fontSize=12;fontStyle=3" parent="89PQKOFuobvwljje_Hko-301" vertex="1">
          <mxGeometry x="380.5" y="145" width="40" height="30" as="geometry" />
        </mxCell>
        <mxCell id="89PQKOFuobvwljje_Hko-361" value="58" style="text;html=1;align=center;verticalAlign=middle;resizable=0;points=[];autosize=1;strokeColor=none;fillColor=none;fontSize=12;fontStyle=3" parent="89PQKOFuobvwljje_Hko-301" vertex="1">
          <mxGeometry x="460.5" y="145" width="40" height="30" as="geometry" />
        </mxCell>
        <mxCell id="89PQKOFuobvwljje_Hko-362" value="59" style="text;html=1;align=center;verticalAlign=middle;resizable=0;points=[];autosize=1;strokeColor=none;fillColor=none;fontSize=12;fontStyle=3" parent="89PQKOFuobvwljje_Hko-301" vertex="1">
          <mxGeometry x="540.5" y="145" width="40" height="30" as="geometry" />
        </mxCell>
        <mxCell id="89PQKOFuobvwljje_Hko-363" value="60" style="text;html=1;align=center;verticalAlign=middle;resizable=0;points=[];autosize=1;strokeColor=none;fillColor=none;fontSize=12;fontStyle=3" parent="89PQKOFuobvwljje_Hko-301" vertex="1">
          <mxGeometry x="620.5" y="145" width="40" height="30" as="geometry" />
        </mxCell>
        <mxCell id="89PQKOFuobvwljje_Hko-364" value="61" style="text;html=1;align=center;verticalAlign=middle;resizable=0;points=[];autosize=1;strokeColor=none;fillColor=none;fontSize=12;fontStyle=3" parent="89PQKOFuobvwljje_Hko-301" vertex="1">
          <mxGeometry x="700.5" y="145" width="40" height="30" as="geometry" />
        </mxCell>
        <mxCell id="89PQKOFuobvwljje_Hko-365" value="62" style="text;html=1;align=center;verticalAlign=middle;resizable=0;points=[];autosize=1;strokeColor=none;fillColor=none;fontSize=12;fontStyle=3;fontColor=#949494;" parent="89PQKOFuobvwljje_Hko-301" vertex="1">
          <mxGeometry x="781.5" y="145" width="40" height="30" as="geometry" />
        </mxCell>
        <mxCell id="89PQKOFuobvwljje_Hko-366" value="63" style="text;html=1;align=center;verticalAlign=middle;resizable=0;points=[];autosize=1;strokeColor=none;fillColor=none;fontSize=12;fontStyle=3" parent="89PQKOFuobvwljje_Hko-301" vertex="1">
          <mxGeometry x="137.5" y="64" width="40" height="30" as="geometry" />
        </mxCell>
        <mxCell id="89PQKOFuobvwljje_Hko-367" value="64" style="text;html=1;align=center;verticalAlign=middle;resizable=0;points=[];autosize=1;strokeColor=none;fillColor=none;fontSize=12;fontStyle=3" parent="89PQKOFuobvwljje_Hko-301" vertex="1">
          <mxGeometry x="217.5" y="64" width="40" height="30" as="geometry" />
        </mxCell>
        <mxCell id="89PQKOFuobvwljje_Hko-368" value="65" style="text;html=1;align=center;verticalAlign=middle;resizable=0;points=[];autosize=1;strokeColor=none;fillColor=none;fontSize=12;fontStyle=3" parent="89PQKOFuobvwljje_Hko-301" vertex="1">
          <mxGeometry x="297.5" y="64" width="40" height="30" as="geometry" />
        </mxCell>
        <mxCell id="89PQKOFuobvwljje_Hko-369" value="66" style="text;html=1;align=center;verticalAlign=middle;resizable=0;points=[];autosize=1;strokeColor=none;fillColor=none;fontSize=12;fontStyle=3" parent="89PQKOFuobvwljje_Hko-301" vertex="1">
          <mxGeometry x="377.5" y="64" width="40" height="30" as="geometry" />
        </mxCell>
        <mxCell id="89PQKOFuobvwljje_Hko-370" value="67" style="text;html=1;align=center;verticalAlign=middle;resizable=0;points=[];autosize=1;strokeColor=none;fillColor=none;fontSize=12;fontStyle=3" parent="89PQKOFuobvwljje_Hko-301" vertex="1">
          <mxGeometry x="457.5" y="64" width="40" height="30" as="geometry" />
        </mxCell>
        <mxCell id="89PQKOFuobvwljje_Hko-371" value="68" style="text;html=1;align=center;verticalAlign=middle;resizable=0;points=[];autosize=1;strokeColor=none;fillColor=none;fontSize=12;fontStyle=3" parent="89PQKOFuobvwljje_Hko-301" vertex="1">
          <mxGeometry x="537.5" y="64" width="40" height="30" as="geometry" />
        </mxCell>
        <mxCell id="89PQKOFuobvwljje_Hko-372" value="69" style="text;html=1;align=center;verticalAlign=middle;resizable=0;points=[];autosize=1;strokeColor=none;fillColor=none;fontSize=12;fontStyle=3" parent="89PQKOFuobvwljje_Hko-301" vertex="1">
          <mxGeometry x="617.5" y="64" width="40" height="30" as="geometry" />
        </mxCell>
        <mxCell id="89PQKOFuobvwljje_Hko-373" value="70" style="text;html=1;align=center;verticalAlign=middle;resizable=0;points=[];autosize=1;strokeColor=none;fillColor=none;fontSize=12;fontStyle=3" parent="89PQKOFuobvwljje_Hko-301" vertex="1">
          <mxGeometry x="697.5" y="64" width="40" height="30" as="geometry" />
        </mxCell>
        <mxCell id="89PQKOFuobvwljje_Hko-374" value="71" style="text;html=1;align=center;verticalAlign=middle;resizable=0;points=[];autosize=1;strokeColor=none;fillColor=none;fontSize=12;fontStyle=3;fontColor=#949494;" parent="89PQKOFuobvwljje_Hko-301" vertex="1">
          <mxGeometry x="778.5" y="64" width="40" height="30" as="geometry" />
        </mxCell>
        <mxCell id="89PQKOFuobvwljje_Hko-375" value="72" style="text;html=1;align=center;verticalAlign=middle;resizable=0;points=[];autosize=1;strokeColor=none;fillColor=none;fontSize=12;fontStyle=3;fontColor=#949494;" parent="89PQKOFuobvwljje_Hko-301" vertex="1">
          <mxGeometry x="138.5" y="-17" width="40" height="30" as="geometry" />
        </mxCell>
        <mxCell id="89PQKOFuobvwljje_Hko-376" value="73" style="text;html=1;align=center;verticalAlign=middle;resizable=0;points=[];autosize=1;strokeColor=none;fillColor=none;fontSize=12;fontStyle=3;fontColor=#949494;" parent="89PQKOFuobvwljje_Hko-301" vertex="1">
          <mxGeometry x="218.5" y="-17" width="40" height="30" as="geometry" />
        </mxCell>
        <mxCell id="89PQKOFuobvwljje_Hko-377" value="74" style="text;html=1;align=center;verticalAlign=middle;resizable=0;points=[];autosize=1;strokeColor=none;fillColor=none;fontSize=12;fontStyle=3;fontColor=#949494;" parent="89PQKOFuobvwljje_Hko-301" vertex="1">
          <mxGeometry x="298.5" y="-17" width="40" height="30" as="geometry" />
        </mxCell>
        <mxCell id="89PQKOFuobvwljje_Hko-378" value="75" style="text;html=1;align=center;verticalAlign=middle;resizable=0;points=[];autosize=1;strokeColor=none;fillColor=none;fontSize=12;fontStyle=3;fontColor=#949494;" parent="89PQKOFuobvwljje_Hko-301" vertex="1">
          <mxGeometry x="378.5" y="-17" width="40" height="30" as="geometry" />
        </mxCell>
        <mxCell id="89PQKOFuobvwljje_Hko-379" value="76" style="text;html=1;align=center;verticalAlign=middle;resizable=0;points=[];autosize=1;strokeColor=none;fillColor=none;fontSize=12;fontStyle=3;fontColor=#949494;" parent="89PQKOFuobvwljje_Hko-301" vertex="1">
          <mxGeometry x="458.5" y="-17" width="40" height="30" as="geometry" />
        </mxCell>
        <mxCell id="89PQKOFuobvwljje_Hko-380" value="77" style="text;html=1;align=center;verticalAlign=middle;resizable=0;points=[];autosize=1;strokeColor=none;fillColor=none;fontSize=12;fontStyle=3;fontColor=#949494;" parent="89PQKOFuobvwljje_Hko-301" vertex="1">
          <mxGeometry x="538.5" y="-17" width="40" height="30" as="geometry" />
        </mxCell>
        <mxCell id="89PQKOFuobvwljje_Hko-381" value="78" style="text;html=1;align=center;verticalAlign=middle;resizable=0;points=[];autosize=1;strokeColor=none;fillColor=none;fontSize=12;fontStyle=3;fontColor=#949494;" parent="89PQKOFuobvwljje_Hko-301" vertex="1">
          <mxGeometry x="618.5" y="-17" width="40" height="30" as="geometry" />
        </mxCell>
        <mxCell id="89PQKOFuobvwljje_Hko-382" value="79" style="text;html=1;align=center;verticalAlign=middle;resizable=0;points=[];autosize=1;strokeColor=none;fillColor=none;fontSize=12;fontStyle=3;fontColor=#949494;" parent="89PQKOFuobvwljje_Hko-301" vertex="1">
          <mxGeometry x="698.5" y="-17" width="40" height="30" as="geometry" />
        </mxCell>
        <mxCell id="89PQKOFuobvwljje_Hko-383" value="&lt;div&gt;80&lt;/div&gt;" style="text;html=1;align=center;verticalAlign=middle;resizable=0;points=[];autosize=1;strokeColor=none;fillColor=none;fontSize=12;fontStyle=3;fontColor=#949494;" parent="89PQKOFuobvwljje_Hko-301" vertex="1">
          <mxGeometry x="779.5" y="-17" width="40" height="30" as="geometry" />
        </mxCell>
        <mxCell id="89PQKOFuobvwljje_Hko-466" value="Horizontal Edges" style="locked=1;" parent="0" visible="0" />
        <mxCell id="89PQKOFuobvwljje_Hko-467" value="0" style="text;html=1;align=center;verticalAlign=middle;resizable=0;points=[];autosize=1;strokeColor=none;fillColor=none;fontSize=9;fontStyle=0;fontColor=#4F4F4F;" parent="89PQKOFuobvwljje_Hko-466" vertex="1">
          <mxGeometry x="104" y="628" width="30" height="20" as="geometry" />
        </mxCell>
        <mxCell id="89PQKOFuobvwljje_Hko-468" value="1" style="text;html=1;align=center;verticalAlign=middle;resizable=0;points=[];autosize=1;strokeColor=none;fillColor=none;fontSize=9;fontStyle=0;fontColor=#4F4F4F;" parent="89PQKOFuobvwljje_Hko-466" vertex="1">
          <mxGeometry x="184" y="628" width="30" height="20" as="geometry" />
        </mxCell>
        <mxCell id="89PQKOFuobvwljje_Hko-469" value="2" style="text;html=1;align=center;verticalAlign=middle;resizable=0;points=[];autosize=1;strokeColor=none;fillColor=none;fontSize=9;fontStyle=0;fontColor=#4F4F4F;" parent="89PQKOFuobvwljje_Hko-466" vertex="1">
          <mxGeometry x="264" y="628" width="30" height="20" as="geometry" />
        </mxCell>
        <mxCell id="89PQKOFuobvwljje_Hko-470" value="3" style="text;html=1;align=center;verticalAlign=middle;resizable=0;points=[];autosize=1;strokeColor=none;fillColor=none;fontSize=9;fontStyle=0;fontColor=#4F4F4F;" parent="89PQKOFuobvwljje_Hko-466" vertex="1">
          <mxGeometry x="344" y="628" width="30" height="20" as="geometry" />
        </mxCell>
        <mxCell id="89PQKOFuobvwljje_Hko-471" value="4" style="text;html=1;align=center;verticalAlign=middle;resizable=0;points=[];autosize=1;strokeColor=none;fillColor=none;fontSize=9;fontStyle=0;fontColor=#4F4F4F;" parent="89PQKOFuobvwljje_Hko-466" vertex="1">
          <mxGeometry x="424" y="628" width="30" height="20" as="geometry" />
        </mxCell>
        <mxCell id="89PQKOFuobvwljje_Hko-472" value="5" style="text;html=1;align=center;verticalAlign=middle;resizable=0;points=[];autosize=1;strokeColor=none;fillColor=none;fontSize=9;fontStyle=0;fontColor=#4F4F4F;" parent="89PQKOFuobvwljje_Hko-466" vertex="1">
          <mxGeometry x="504" y="628" width="30" height="20" as="geometry" />
        </mxCell>
        <mxCell id="89PQKOFuobvwljje_Hko-473" value="6" style="text;html=1;align=center;verticalAlign=middle;resizable=0;points=[];autosize=1;strokeColor=none;fillColor=none;fontSize=9;fontStyle=0;fontColor=#4F4F4F;" parent="89PQKOFuobvwljje_Hko-466" vertex="1">
          <mxGeometry x="584" y="628" width="30" height="20" as="geometry" />
        </mxCell>
        <mxCell id="89PQKOFuobvwljje_Hko-474" value="7" style="text;html=1;align=center;verticalAlign=middle;resizable=0;points=[];autosize=1;strokeColor=none;fillColor=none;fontSize=9;fontStyle=0;fontColor=#4F4F4F;" parent="89PQKOFuobvwljje_Hko-466" vertex="1">
          <mxGeometry x="664" y="628" width="30" height="20" as="geometry" />
        </mxCell>
        <mxCell id="89PQKOFuobvwljje_Hko-475" value="8" style="text;html=1;align=center;verticalAlign=middle;resizable=0;points=[];autosize=1;strokeColor=none;fillColor=none;fontSize=9;fontStyle=0;fontColor=#4F4F4F;" parent="89PQKOFuobvwljje_Hko-466" vertex="1">
          <mxGeometry x="745" y="628" width="30" height="20" as="geometry" />
        </mxCell>
        <mxCell id="89PQKOFuobvwljje_Hko-476" value="9" style="text;html=1;align=center;verticalAlign=middle;resizable=0;points=[];autosize=1;strokeColor=none;fillColor=none;fontSize=9;fontStyle=0;fontColor=#4F4F4F;" parent="89PQKOFuobvwljje_Hko-466" vertex="1">
          <mxGeometry x="103.5" y="549" width="30" height="20" as="geometry" />
        </mxCell>
        <mxCell id="89PQKOFuobvwljje_Hko-477" value="10" style="text;html=1;align=center;verticalAlign=middle;resizable=0;points=[];autosize=1;strokeColor=none;fillColor=none;fontSize=9;fontStyle=0;fontColor=#4F4F4F;" parent="89PQKOFuobvwljje_Hko-466" vertex="1">
          <mxGeometry x="183.5" y="549" width="30" height="20" as="geometry" />
        </mxCell>
        <mxCell id="89PQKOFuobvwljje_Hko-478" value="11" style="text;html=1;align=center;verticalAlign=middle;resizable=0;points=[];autosize=1;strokeColor=none;fillColor=none;fontSize=9;fontStyle=0;fontColor=#4F4F4F;" parent="89PQKOFuobvwljje_Hko-466" vertex="1">
          <mxGeometry x="263.5" y="549" width="30" height="20" as="geometry" />
        </mxCell>
        <mxCell id="89PQKOFuobvwljje_Hko-479" value="12" style="text;html=1;align=center;verticalAlign=middle;resizable=0;points=[];autosize=1;strokeColor=none;fillColor=none;fontSize=9;fontStyle=0;fontColor=#4F4F4F;" parent="89PQKOFuobvwljje_Hko-466" vertex="1">
          <mxGeometry x="343.5" y="549" width="30" height="20" as="geometry" />
        </mxCell>
        <mxCell id="89PQKOFuobvwljje_Hko-480" value="13" style="text;html=1;align=center;verticalAlign=middle;resizable=0;points=[];autosize=1;strokeColor=none;fillColor=none;fontSize=9;fontStyle=0;fontColor=#4F4F4F;" parent="89PQKOFuobvwljje_Hko-466" vertex="1">
          <mxGeometry x="423.5" y="549" width="30" height="20" as="geometry" />
        </mxCell>
        <mxCell id="89PQKOFuobvwljje_Hko-481" value="14" style="text;html=1;align=center;verticalAlign=middle;resizable=0;points=[];autosize=1;strokeColor=none;fillColor=none;fontSize=9;fontStyle=0;fontColor=#4F4F4F;" parent="89PQKOFuobvwljje_Hko-466" vertex="1">
          <mxGeometry x="503.5" y="549" width="30" height="20" as="geometry" />
        </mxCell>
        <mxCell id="89PQKOFuobvwljje_Hko-482" value="15" style="text;html=1;align=center;verticalAlign=middle;resizable=0;points=[];autosize=1;strokeColor=none;fillColor=none;fontSize=9;fontStyle=0;fontColor=#4F4F4F;" parent="89PQKOFuobvwljje_Hko-466" vertex="1">
          <mxGeometry x="583.5" y="549" width="30" height="20" as="geometry" />
        </mxCell>
        <mxCell id="89PQKOFuobvwljje_Hko-483" value="16" style="text;html=1;align=center;verticalAlign=middle;resizable=0;points=[];autosize=1;strokeColor=none;fillColor=none;fontSize=9;fontStyle=0;fontColor=#4F4F4F;" parent="89PQKOFuobvwljje_Hko-466" vertex="1">
          <mxGeometry x="663.5" y="549" width="30" height="20" as="geometry" />
        </mxCell>
        <mxCell id="89PQKOFuobvwljje_Hko-484" value="17" style="text;html=1;align=center;verticalAlign=middle;resizable=0;points=[];autosize=1;strokeColor=none;fillColor=none;fontSize=9;fontStyle=0;fontColor=#4F4F4F;" parent="89PQKOFuobvwljje_Hko-466" vertex="1">
          <mxGeometry x="744.5" y="549" width="30" height="20" as="geometry" />
        </mxCell>
        <mxCell id="89PQKOFuobvwljje_Hko-485" value="18" style="text;html=1;align=center;verticalAlign=middle;resizable=0;points=[];autosize=1;strokeColor=none;fillColor=none;fontSize=9;fontStyle=0;fontColor=#4F4F4F;" parent="89PQKOFuobvwljje_Hko-466" vertex="1">
          <mxGeometry x="103" y="469" width="30" height="20" as="geometry" />
        </mxCell>
        <mxCell id="89PQKOFuobvwljje_Hko-486" value="19" style="text;html=1;align=center;verticalAlign=middle;resizable=0;points=[];autosize=1;strokeColor=none;fillColor=none;fontSize=9;fontStyle=0;fontColor=#4F4F4F;" parent="89PQKOFuobvwljje_Hko-466" vertex="1">
          <mxGeometry x="183" y="469" width="30" height="20" as="geometry" />
        </mxCell>
        <mxCell id="89PQKOFuobvwljje_Hko-487" value="20" style="text;html=1;align=center;verticalAlign=middle;resizable=0;points=[];autosize=1;strokeColor=none;fillColor=none;fontSize=9;fontStyle=0;fontColor=#4F4F4F;" parent="89PQKOFuobvwljje_Hko-466" vertex="1">
          <mxGeometry x="263" y="469" width="30" height="20" as="geometry" />
        </mxCell>
        <mxCell id="89PQKOFuobvwljje_Hko-488" value="21" style="text;html=1;align=center;verticalAlign=middle;resizable=0;points=[];autosize=1;strokeColor=none;fillColor=none;fontSize=9;fontStyle=0;fontColor=#4F4F4F;" parent="89PQKOFuobvwljje_Hko-466" vertex="1">
          <mxGeometry x="343" y="469" width="30" height="20" as="geometry" />
        </mxCell>
        <mxCell id="89PQKOFuobvwljje_Hko-489" value="22" style="text;html=1;align=center;verticalAlign=middle;resizable=0;points=[];autosize=1;strokeColor=none;fillColor=none;fontSize=9;fontStyle=0;fontColor=#4F4F4F;" parent="89PQKOFuobvwljje_Hko-466" vertex="1">
          <mxGeometry x="423" y="469" width="30" height="20" as="geometry" />
        </mxCell>
        <mxCell id="89PQKOFuobvwljje_Hko-490" value="23" style="text;html=1;align=center;verticalAlign=middle;resizable=0;points=[];autosize=1;strokeColor=none;fillColor=none;fontSize=9;fontStyle=0;fontColor=#4F4F4F;" parent="89PQKOFuobvwljje_Hko-466" vertex="1">
          <mxGeometry x="503" y="469" width="30" height="20" as="geometry" />
        </mxCell>
        <mxCell id="89PQKOFuobvwljje_Hko-491" value="24" style="text;html=1;align=center;verticalAlign=middle;resizable=0;points=[];autosize=1;strokeColor=none;fillColor=none;fontSize=9;fontStyle=0;fontColor=#4F4F4F;" parent="89PQKOFuobvwljje_Hko-466" vertex="1">
          <mxGeometry x="583" y="469" width="30" height="20" as="geometry" />
        </mxCell>
        <mxCell id="89PQKOFuobvwljje_Hko-492" value="25" style="text;html=1;align=center;verticalAlign=middle;resizable=0;points=[];autosize=1;strokeColor=none;fillColor=none;fontSize=9;fontStyle=0;fontColor=#4F4F4F;" parent="89PQKOFuobvwljje_Hko-466" vertex="1">
          <mxGeometry x="663" y="469" width="30" height="20" as="geometry" />
        </mxCell>
        <mxCell id="89PQKOFuobvwljje_Hko-493" value="26" style="text;html=1;align=center;verticalAlign=middle;resizable=0;points=[];autosize=1;strokeColor=none;fillColor=none;fontSize=9;fontStyle=0;fontColor=#4F4F4F;" parent="89PQKOFuobvwljje_Hko-466" vertex="1">
          <mxGeometry x="744" y="469" width="30" height="20" as="geometry" />
        </mxCell>
        <mxCell id="89PQKOFuobvwljje_Hko-494" value="27" style="text;html=1;align=center;verticalAlign=middle;resizable=0;points=[];autosize=1;strokeColor=none;fillColor=none;fontSize=9;fontStyle=0;fontColor=#4F4F4F;" parent="89PQKOFuobvwljje_Hko-466" vertex="1">
          <mxGeometry x="103.5" y="389" width="30" height="20" as="geometry" />
        </mxCell>
        <mxCell id="89PQKOFuobvwljje_Hko-495" value="28" style="text;html=1;align=center;verticalAlign=middle;resizable=0;points=[];autosize=1;strokeColor=none;fillColor=none;fontSize=9;fontStyle=0;fontColor=#4F4F4F;" parent="89PQKOFuobvwljje_Hko-466" vertex="1">
          <mxGeometry x="183.5" y="389" width="30" height="20" as="geometry" />
        </mxCell>
        <mxCell id="89PQKOFuobvwljje_Hko-496" value="29" style="text;html=1;align=center;verticalAlign=middle;resizable=0;points=[];autosize=1;strokeColor=none;fillColor=none;fontSize=9;fontStyle=0;fontColor=#4F4F4F;" parent="89PQKOFuobvwljje_Hko-466" vertex="1">
          <mxGeometry x="263.5" y="389" width="30" height="20" as="geometry" />
        </mxCell>
        <mxCell id="89PQKOFuobvwljje_Hko-497" value="30" style="text;html=1;align=center;verticalAlign=middle;resizable=0;points=[];autosize=1;strokeColor=none;fillColor=none;fontSize=9;fontStyle=0;fontColor=#4F4F4F;" parent="89PQKOFuobvwljje_Hko-466" vertex="1">
          <mxGeometry x="343.5" y="389" width="30" height="20" as="geometry" />
        </mxCell>
        <mxCell id="89PQKOFuobvwljje_Hko-498" value="31" style="text;html=1;align=center;verticalAlign=middle;resizable=0;points=[];autosize=1;strokeColor=none;fillColor=none;fontSize=9;fontStyle=0;fontColor=#4F4F4F;" parent="89PQKOFuobvwljje_Hko-466" vertex="1">
          <mxGeometry x="423.5" y="389" width="30" height="20" as="geometry" />
        </mxCell>
        <mxCell id="89PQKOFuobvwljje_Hko-499" value="32" style="text;html=1;align=center;verticalAlign=middle;resizable=0;points=[];autosize=1;strokeColor=none;fillColor=none;fontSize=9;fontStyle=0;fontColor=#4F4F4F;" parent="89PQKOFuobvwljje_Hko-466" vertex="1">
          <mxGeometry x="503.5" y="389" width="30" height="20" as="geometry" />
        </mxCell>
        <mxCell id="89PQKOFuobvwljje_Hko-500" value="33" style="text;html=1;align=center;verticalAlign=middle;resizable=0;points=[];autosize=1;strokeColor=none;fillColor=none;fontSize=9;fontStyle=0;fontColor=#4F4F4F;" parent="89PQKOFuobvwljje_Hko-466" vertex="1">
          <mxGeometry x="583.5" y="389" width="30" height="20" as="geometry" />
        </mxCell>
        <mxCell id="89PQKOFuobvwljje_Hko-501" value="34" style="text;html=1;align=center;verticalAlign=middle;resizable=0;points=[];autosize=1;strokeColor=none;fillColor=none;fontSize=9;fontStyle=0;fontColor=#4F4F4F;" parent="89PQKOFuobvwljje_Hko-466" vertex="1">
          <mxGeometry x="663.5" y="389" width="30" height="20" as="geometry" />
        </mxCell>
        <mxCell id="89PQKOFuobvwljje_Hko-502" value="35" style="text;html=1;align=center;verticalAlign=middle;resizable=0;points=[];autosize=1;strokeColor=none;fillColor=none;fontSize=9;fontStyle=0;fontColor=#4F4F4F;" parent="89PQKOFuobvwljje_Hko-466" vertex="1">
          <mxGeometry x="744.5" y="389" width="30" height="20" as="geometry" />
        </mxCell>
        <mxCell id="89PQKOFuobvwljje_Hko-503" value="36" style="text;html=1;align=center;verticalAlign=middle;resizable=0;points=[];autosize=1;strokeColor=none;fillColor=none;fontSize=9;fontStyle=0;fontColor=#4F4F4F;" parent="89PQKOFuobvwljje_Hko-466" vertex="1">
          <mxGeometry x="106" y="309" width="30" height="20" as="geometry" />
        </mxCell>
        <mxCell id="89PQKOFuobvwljje_Hko-504" value="37" style="text;html=1;align=center;verticalAlign=middle;resizable=0;points=[];autosize=1;strokeColor=none;fillColor=none;fontSize=9;fontStyle=0;fontColor=#4F4F4F;" parent="89PQKOFuobvwljje_Hko-466" vertex="1">
          <mxGeometry x="186" y="309" width="30" height="20" as="geometry" />
        </mxCell>
        <mxCell id="89PQKOFuobvwljje_Hko-505" value="38" style="text;html=1;align=center;verticalAlign=middle;resizable=0;points=[];autosize=1;strokeColor=none;fillColor=none;fontSize=9;fontStyle=0;fontColor=#4F4F4F;" parent="89PQKOFuobvwljje_Hko-466" vertex="1">
          <mxGeometry x="266" y="309" width="30" height="20" as="geometry" />
        </mxCell>
        <mxCell id="89PQKOFuobvwljje_Hko-506" value="39" style="text;html=1;align=center;verticalAlign=middle;resizable=0;points=[];autosize=1;strokeColor=none;fillColor=none;fontSize=9;fontStyle=0;fontColor=#4F4F4F;" parent="89PQKOFuobvwljje_Hko-466" vertex="1">
          <mxGeometry x="346" y="309" width="30" height="20" as="geometry" />
        </mxCell>
        <mxCell id="89PQKOFuobvwljje_Hko-507" value="40" style="text;html=1;align=center;verticalAlign=middle;resizable=0;points=[];autosize=1;strokeColor=none;fillColor=none;fontSize=9;fontStyle=0;fontColor=#4F4F4F;" parent="89PQKOFuobvwljje_Hko-466" vertex="1">
          <mxGeometry x="426" y="309" width="30" height="20" as="geometry" />
        </mxCell>
        <mxCell id="89PQKOFuobvwljje_Hko-508" value="41" style="text;html=1;align=center;verticalAlign=middle;resizable=0;points=[];autosize=1;strokeColor=none;fillColor=none;fontSize=9;fontStyle=0;fontColor=#4F4F4F;" parent="89PQKOFuobvwljje_Hko-466" vertex="1">
          <mxGeometry x="506" y="309" width="30" height="20" as="geometry" />
        </mxCell>
        <mxCell id="89PQKOFuobvwljje_Hko-509" value="42" style="text;html=1;align=center;verticalAlign=middle;resizable=0;points=[];autosize=1;strokeColor=none;fillColor=none;fontSize=9;fontStyle=0;fontColor=#4F4F4F;" parent="89PQKOFuobvwljje_Hko-466" vertex="1">
          <mxGeometry x="586" y="309" width="30" height="20" as="geometry" />
        </mxCell>
        <mxCell id="89PQKOFuobvwljje_Hko-510" value="43" style="text;html=1;align=center;verticalAlign=middle;resizable=0;points=[];autosize=1;strokeColor=none;fillColor=none;fontSize=9;fontStyle=0;fontColor=#4F4F4F;" parent="89PQKOFuobvwljje_Hko-466" vertex="1">
          <mxGeometry x="666" y="309" width="30" height="20" as="geometry" />
        </mxCell>
        <mxCell id="89PQKOFuobvwljje_Hko-511" value="44" style="text;html=1;align=center;verticalAlign=middle;resizable=0;points=[];autosize=1;strokeColor=none;fillColor=none;fontSize=9;fontStyle=0;fontColor=#4F4F4F;" parent="89PQKOFuobvwljje_Hko-466" vertex="1">
          <mxGeometry x="747" y="309" width="30" height="20" as="geometry" />
        </mxCell>
        <mxCell id="89PQKOFuobvwljje_Hko-512" value="45" style="text;html=1;align=center;verticalAlign=middle;resizable=0;points=[];autosize=1;strokeColor=none;fillColor=none;fontSize=9;fontStyle=0;fontColor=#4F4F4F;" parent="89PQKOFuobvwljje_Hko-466" vertex="1">
          <mxGeometry x="105" y="229" width="30" height="20" as="geometry" />
        </mxCell>
        <mxCell id="89PQKOFuobvwljje_Hko-513" value="46" style="text;html=1;align=center;verticalAlign=middle;resizable=0;points=[];autosize=1;strokeColor=none;fillColor=none;fontSize=9;fontStyle=0;fontColor=#4F4F4F;" parent="89PQKOFuobvwljje_Hko-466" vertex="1">
          <mxGeometry x="185" y="229" width="30" height="20" as="geometry" />
        </mxCell>
        <mxCell id="89PQKOFuobvwljje_Hko-514" value="47" style="text;html=1;align=center;verticalAlign=middle;resizable=0;points=[];autosize=1;strokeColor=none;fillColor=none;fontSize=9;fontStyle=0;fontColor=#4F4F4F;" parent="89PQKOFuobvwljje_Hko-466" vertex="1">
          <mxGeometry x="265" y="229" width="30" height="20" as="geometry" />
        </mxCell>
        <mxCell id="89PQKOFuobvwljje_Hko-515" value="48" style="text;html=1;align=center;verticalAlign=middle;resizable=0;points=[];autosize=1;strokeColor=none;fillColor=none;fontSize=9;fontStyle=0;fontColor=#4F4F4F;" parent="89PQKOFuobvwljje_Hko-466" vertex="1">
          <mxGeometry x="345" y="229" width="30" height="20" as="geometry" />
        </mxCell>
        <mxCell id="89PQKOFuobvwljje_Hko-516" value="49" style="text;html=1;align=center;verticalAlign=middle;resizable=0;points=[];autosize=1;strokeColor=none;fillColor=none;fontSize=9;fontStyle=0;fontColor=#4F4F4F;" parent="89PQKOFuobvwljje_Hko-466" vertex="1">
          <mxGeometry x="425" y="229" width="30" height="20" as="geometry" />
        </mxCell>
        <mxCell id="89PQKOFuobvwljje_Hko-517" value="50" style="text;html=1;align=center;verticalAlign=middle;resizable=0;points=[];autosize=1;strokeColor=none;fillColor=none;fontSize=9;fontStyle=0;fontColor=#4F4F4F;" parent="89PQKOFuobvwljje_Hko-466" vertex="1">
          <mxGeometry x="505" y="229" width="30" height="20" as="geometry" />
        </mxCell>
        <mxCell id="89PQKOFuobvwljje_Hko-518" value="51" style="text;html=1;align=center;verticalAlign=middle;resizable=0;points=[];autosize=1;strokeColor=none;fillColor=none;fontSize=9;fontStyle=0;fontColor=#4F4F4F;" parent="89PQKOFuobvwljje_Hko-466" vertex="1">
          <mxGeometry x="585" y="229" width="30" height="20" as="geometry" />
        </mxCell>
        <mxCell id="89PQKOFuobvwljje_Hko-519" value="52" style="text;html=1;align=center;verticalAlign=middle;resizable=0;points=[];autosize=1;strokeColor=none;fillColor=none;fontSize=9;fontStyle=0;fontColor=#4F4F4F;" parent="89PQKOFuobvwljje_Hko-466" vertex="1">
          <mxGeometry x="665" y="229" width="30" height="20" as="geometry" />
        </mxCell>
        <mxCell id="89PQKOFuobvwljje_Hko-520" value="53" style="text;html=1;align=center;verticalAlign=middle;resizable=0;points=[];autosize=1;strokeColor=none;fillColor=none;fontSize=9;fontStyle=0;fontColor=#4F4F4F;" parent="89PQKOFuobvwljje_Hko-466" vertex="1">
          <mxGeometry x="746" y="229" width="30" height="20" as="geometry" />
        </mxCell>
        <mxCell id="89PQKOFuobvwljje_Hko-521" value="54" style="text;html=1;align=center;verticalAlign=middle;resizable=0;points=[];autosize=1;strokeColor=none;fillColor=none;fontSize=9;fontStyle=0;fontColor=#4F4F4F;" parent="89PQKOFuobvwljje_Hko-466" vertex="1">
          <mxGeometry x="105.5" y="149" width="30" height="20" as="geometry" />
        </mxCell>
        <mxCell id="89PQKOFuobvwljje_Hko-522" value="55" style="text;html=1;align=center;verticalAlign=middle;resizable=0;points=[];autosize=1;strokeColor=none;fillColor=none;fontSize=9;fontStyle=0;fontColor=#4F4F4F;" parent="89PQKOFuobvwljje_Hko-466" vertex="1">
          <mxGeometry x="185.5" y="149" width="30" height="20" as="geometry" />
        </mxCell>
        <mxCell id="89PQKOFuobvwljje_Hko-523" value="56" style="text;html=1;align=center;verticalAlign=middle;resizable=0;points=[];autosize=1;strokeColor=none;fillColor=none;fontSize=9;fontStyle=0;fontColor=#4F4F4F;" parent="89PQKOFuobvwljje_Hko-466" vertex="1">
          <mxGeometry x="265.5" y="149" width="30" height="20" as="geometry" />
        </mxCell>
        <mxCell id="89PQKOFuobvwljje_Hko-524" value="57" style="text;html=1;align=center;verticalAlign=middle;resizable=0;points=[];autosize=1;strokeColor=none;fillColor=none;fontSize=9;fontStyle=0;fontColor=#4F4F4F;" parent="89PQKOFuobvwljje_Hko-466" vertex="1">
          <mxGeometry x="345.5" y="149" width="30" height="20" as="geometry" />
        </mxCell>
        <mxCell id="89PQKOFuobvwljje_Hko-525" value="58" style="text;html=1;align=center;verticalAlign=middle;resizable=0;points=[];autosize=1;strokeColor=none;fillColor=none;fontSize=9;fontStyle=0;fontColor=#4F4F4F;" parent="89PQKOFuobvwljje_Hko-466" vertex="1">
          <mxGeometry x="425.5" y="149" width="30" height="20" as="geometry" />
        </mxCell>
        <mxCell id="89PQKOFuobvwljje_Hko-526" value="59" style="text;html=1;align=center;verticalAlign=middle;resizable=0;points=[];autosize=1;strokeColor=none;fillColor=none;fontSize=9;fontStyle=0;fontColor=#4F4F4F;" parent="89PQKOFuobvwljje_Hko-466" vertex="1">
          <mxGeometry x="505.5" y="149" width="30" height="20" as="geometry" />
        </mxCell>
        <mxCell id="89PQKOFuobvwljje_Hko-527" value="60" style="text;html=1;align=center;verticalAlign=middle;resizable=0;points=[];autosize=1;strokeColor=none;fillColor=none;fontSize=9;fontStyle=0;fontColor=#4F4F4F;" parent="89PQKOFuobvwljje_Hko-466" vertex="1">
          <mxGeometry x="585.5" y="149" width="30" height="20" as="geometry" />
        </mxCell>
        <mxCell id="89PQKOFuobvwljje_Hko-528" value="61" style="text;html=1;align=center;verticalAlign=middle;resizable=0;points=[];autosize=1;strokeColor=none;fillColor=none;fontSize=9;fontStyle=0;fontColor=#4F4F4F;" parent="89PQKOFuobvwljje_Hko-466" vertex="1">
          <mxGeometry x="665.5" y="149" width="30" height="20" as="geometry" />
        </mxCell>
        <mxCell id="89PQKOFuobvwljje_Hko-529" value="62" style="text;html=1;align=center;verticalAlign=middle;resizable=0;points=[];autosize=1;strokeColor=none;fillColor=none;fontSize=9;fontStyle=0;fontColor=#4F4F4F;" parent="89PQKOFuobvwljje_Hko-466" vertex="1">
          <mxGeometry x="746.5" y="149" width="30" height="20" as="geometry" />
        </mxCell>
        <mxCell id="89PQKOFuobvwljje_Hko-530" value="63" style="text;html=1;align=center;verticalAlign=middle;resizable=0;points=[];autosize=1;strokeColor=none;fillColor=none;fontSize=9;fontStyle=0;fontColor=#4F4F4F;" parent="89PQKOFuobvwljje_Hko-466" vertex="1">
          <mxGeometry x="103.5" y="68" width="30" height="20" as="geometry" />
        </mxCell>
        <mxCell id="89PQKOFuobvwljje_Hko-531" value="64" style="text;html=1;align=center;verticalAlign=middle;resizable=0;points=[];autosize=1;strokeColor=none;fillColor=none;fontSize=9;fontStyle=0;fontColor=#4F4F4F;" parent="89PQKOFuobvwljje_Hko-466" vertex="1">
          <mxGeometry x="183.5" y="68" width="30" height="20" as="geometry" />
        </mxCell>
        <mxCell id="89PQKOFuobvwljje_Hko-532" value="65" style="text;html=1;align=center;verticalAlign=middle;resizable=0;points=[];autosize=1;strokeColor=none;fillColor=none;fontSize=9;fontStyle=0;fontColor=#4F4F4F;" parent="89PQKOFuobvwljje_Hko-466" vertex="1">
          <mxGeometry x="263.5" y="68" width="30" height="20" as="geometry" />
        </mxCell>
        <mxCell id="89PQKOFuobvwljje_Hko-533" value="66" style="text;html=1;align=center;verticalAlign=middle;resizable=0;points=[];autosize=1;strokeColor=none;fillColor=none;fontSize=9;fontStyle=0;fontColor=#4F4F4F;" parent="89PQKOFuobvwljje_Hko-466" vertex="1">
          <mxGeometry x="343.5" y="68" width="30" height="20" as="geometry" />
        </mxCell>
        <mxCell id="89PQKOFuobvwljje_Hko-534" value="67" style="text;html=1;align=center;verticalAlign=middle;resizable=0;points=[];autosize=1;strokeColor=none;fillColor=none;fontSize=9;fontStyle=0;fontColor=#4F4F4F;" parent="89PQKOFuobvwljje_Hko-466" vertex="1">
          <mxGeometry x="423.5" y="68" width="30" height="20" as="geometry" />
        </mxCell>
        <mxCell id="89PQKOFuobvwljje_Hko-535" value="68" style="text;html=1;align=center;verticalAlign=middle;resizable=0;points=[];autosize=1;strokeColor=none;fillColor=none;fontSize=9;fontStyle=0;fontColor=#4F4F4F;" parent="89PQKOFuobvwljje_Hko-466" vertex="1">
          <mxGeometry x="503.5" y="68" width="30" height="20" as="geometry" />
        </mxCell>
        <mxCell id="89PQKOFuobvwljje_Hko-536" value="69" style="text;html=1;align=center;verticalAlign=middle;resizable=0;points=[];autosize=1;strokeColor=none;fillColor=none;fontSize=9;fontStyle=0;fontColor=#4F4F4F;" parent="89PQKOFuobvwljje_Hko-466" vertex="1">
          <mxGeometry x="583.5" y="68" width="30" height="20" as="geometry" />
        </mxCell>
        <mxCell id="89PQKOFuobvwljje_Hko-537" value="70" style="text;html=1;align=center;verticalAlign=middle;resizable=0;points=[];autosize=1;strokeColor=none;fillColor=none;fontSize=9;fontStyle=0;fontColor=#4F4F4F;" parent="89PQKOFuobvwljje_Hko-466" vertex="1">
          <mxGeometry x="663.5" y="68" width="30" height="20" as="geometry" />
        </mxCell>
        <mxCell id="89PQKOFuobvwljje_Hko-538" value="71" style="text;html=1;align=center;verticalAlign=middle;resizable=0;points=[];autosize=1;strokeColor=none;fillColor=none;fontSize=9;fontStyle=0;fontColor=#4F4F4F;" parent="89PQKOFuobvwljje_Hko-466" vertex="1">
          <mxGeometry x="744.5" y="68" width="30" height="20" as="geometry" />
        </mxCell>
        <mxCell id="89PQKOFuobvwljje_Hko-539" value="72" style="text;html=1;align=center;verticalAlign=middle;resizable=0;points=[];autosize=1;strokeColor=none;fillColor=none;fontSize=9;fontStyle=0;fontColor=#949494;" parent="89PQKOFuobvwljje_Hko-466" vertex="1">
          <mxGeometry x="103.5" y="-11" width="30" height="20" as="geometry" />
        </mxCell>
        <mxCell id="89PQKOFuobvwljje_Hko-540" value="73" style="text;html=1;align=center;verticalAlign=middle;resizable=0;points=[];autosize=1;strokeColor=none;fillColor=none;fontSize=9;fontStyle=0;fontColor=#949494;" parent="89PQKOFuobvwljje_Hko-466" vertex="1">
          <mxGeometry x="183.5" y="-11" width="30" height="20" as="geometry" />
        </mxCell>
        <mxCell id="89PQKOFuobvwljje_Hko-541" value="74" style="text;html=1;align=center;verticalAlign=middle;resizable=0;points=[];autosize=1;strokeColor=none;fillColor=none;fontSize=9;fontStyle=0;fontColor=#949494;" parent="89PQKOFuobvwljje_Hko-466" vertex="1">
          <mxGeometry x="263.5" y="-11" width="30" height="20" as="geometry" />
        </mxCell>
        <mxCell id="89PQKOFuobvwljje_Hko-542" value="75" style="text;html=1;align=center;verticalAlign=middle;resizable=0;points=[];autosize=1;strokeColor=none;fillColor=none;fontSize=9;fontStyle=0;fontColor=#949494;" parent="89PQKOFuobvwljje_Hko-466" vertex="1">
          <mxGeometry x="343.5" y="-11" width="30" height="20" as="geometry" />
        </mxCell>
        <mxCell id="89PQKOFuobvwljje_Hko-543" value="76" style="text;html=1;align=center;verticalAlign=middle;resizable=0;points=[];autosize=1;strokeColor=none;fillColor=none;fontSize=9;fontStyle=0;fontColor=#949494;" parent="89PQKOFuobvwljje_Hko-466" vertex="1">
          <mxGeometry x="423.5" y="-11" width="30" height="20" as="geometry" />
        </mxCell>
        <mxCell id="89PQKOFuobvwljje_Hko-544" value="77" style="text;html=1;align=center;verticalAlign=middle;resizable=0;points=[];autosize=1;strokeColor=none;fillColor=none;fontSize=9;fontStyle=0;fontColor=#949494;" parent="89PQKOFuobvwljje_Hko-466" vertex="1">
          <mxGeometry x="503.5" y="-11" width="30" height="20" as="geometry" />
        </mxCell>
        <mxCell id="89PQKOFuobvwljje_Hko-545" value="78" style="text;html=1;align=center;verticalAlign=middle;resizable=0;points=[];autosize=1;strokeColor=none;fillColor=none;fontSize=9;fontStyle=0;fontColor=#949494;" parent="89PQKOFuobvwljje_Hko-466" vertex="1">
          <mxGeometry x="583.5" y="-11" width="30" height="20" as="geometry" />
        </mxCell>
        <mxCell id="89PQKOFuobvwljje_Hko-546" value="79" style="text;html=1;align=center;verticalAlign=middle;resizable=0;points=[];autosize=1;strokeColor=none;fillColor=none;fontSize=9;fontStyle=0;fontColor=#949494;" parent="89PQKOFuobvwljje_Hko-466" vertex="1">
          <mxGeometry x="663.5" y="-11" width="30" height="20" as="geometry" />
        </mxCell>
        <mxCell id="89PQKOFuobvwljje_Hko-547" value="80" style="text;html=1;align=center;verticalAlign=middle;resizable=0;points=[];autosize=1;strokeColor=none;fillColor=none;fontSize=9;fontStyle=0;fontColor=#949494;" parent="89PQKOFuobvwljje_Hko-466" vertex="1">
          <mxGeometry x="744.5" y="-11" width="30" height="20" as="geometry" />
        </mxCell>
        <mxCell id="BtSQhTI0HB3vT4Jcnjy8-1" value="Vertical Edges" style="locked=1;" parent="0" visible="0" />
        <mxCell id="BtSQhTI0HB3vT4Jcnjy8-2" value="0" style="text;html=1;align=center;verticalAlign=middle;resizable=0;points=[];autosize=1;strokeColor=none;fillColor=none;fontSize=9;fontStyle=0;fontColor=#4F4F4F;" parent="BtSQhTI0HB3vT4Jcnjy8-1" vertex="1">
          <mxGeometry x="144" y="668" width="30" height="20" as="geometry" />
        </mxCell>
        <mxCell id="BtSQhTI0HB3vT4Jcnjy8-3" value="1" style="text;html=1;align=center;verticalAlign=middle;resizable=0;points=[];autosize=1;strokeColor=none;fillColor=none;fontSize=9;fontStyle=0;fontColor=#4F4F4F;" parent="BtSQhTI0HB3vT4Jcnjy8-1" vertex="1">
          <mxGeometry x="224" y="668" width="30" height="20" as="geometry" />
        </mxCell>
        <mxCell id="BtSQhTI0HB3vT4Jcnjy8-4" value="2" style="text;html=1;align=center;verticalAlign=middle;resizable=0;points=[];autosize=1;strokeColor=none;fillColor=none;fontSize=9;fontStyle=0;fontColor=#4F4F4F;" parent="BtSQhTI0HB3vT4Jcnjy8-1" vertex="1">
          <mxGeometry x="304" y="668" width="30" height="20" as="geometry" />
        </mxCell>
        <mxCell id="BtSQhTI0HB3vT4Jcnjy8-5" value="3" style="text;html=1;align=center;verticalAlign=middle;resizable=0;points=[];autosize=1;strokeColor=none;fillColor=none;fontSize=9;fontStyle=0;fontColor=#4F4F4F;" parent="BtSQhTI0HB3vT4Jcnjy8-1" vertex="1">
          <mxGeometry x="384" y="668" width="30" height="20" as="geometry" />
        </mxCell>
        <mxCell id="BtSQhTI0HB3vT4Jcnjy8-6" value="4" style="text;html=1;align=center;verticalAlign=middle;resizable=0;points=[];autosize=1;strokeColor=none;fillColor=none;fontSize=9;fontStyle=0;fontColor=#4F4F4F;" parent="BtSQhTI0HB3vT4Jcnjy8-1" vertex="1">
          <mxGeometry x="464" y="668" width="30" height="20" as="geometry" />
        </mxCell>
        <mxCell id="BtSQhTI0HB3vT4Jcnjy8-7" value="5" style="text;html=1;align=center;verticalAlign=middle;resizable=0;points=[];autosize=1;strokeColor=none;fillColor=none;fontSize=9;fontStyle=0;fontColor=#4F4F4F;" parent="BtSQhTI0HB3vT4Jcnjy8-1" vertex="1">
          <mxGeometry x="544" y="668" width="30" height="20" as="geometry" />
        </mxCell>
        <mxCell id="BtSQhTI0HB3vT4Jcnjy8-8" value="6" style="text;html=1;align=center;verticalAlign=middle;resizable=0;points=[];autosize=1;strokeColor=none;fillColor=none;fontSize=9;fontStyle=0;fontColor=#4F4F4F;" parent="BtSQhTI0HB3vT4Jcnjy8-1" vertex="1">
          <mxGeometry x="624" y="668" width="30" height="20" as="geometry" />
        </mxCell>
        <mxCell id="BtSQhTI0HB3vT4Jcnjy8-9" value="7" style="text;html=1;align=center;verticalAlign=middle;resizable=0;points=[];autosize=1;strokeColor=none;fillColor=none;fontSize=9;fontStyle=0;fontColor=#4F4F4F;" parent="BtSQhTI0HB3vT4Jcnjy8-1" vertex="1">
          <mxGeometry x="704" y="668" width="30" height="20" as="geometry" />
        </mxCell>
        <mxCell id="BtSQhTI0HB3vT4Jcnjy8-10" value="8" style="text;html=1;align=center;verticalAlign=middle;resizable=0;points=[];autosize=1;strokeColor=none;fillColor=none;fontSize=9;fontStyle=0;fontColor=#4F4F4F;" parent="BtSQhTI0HB3vT4Jcnjy8-1" vertex="1">
          <mxGeometry x="785" y="668" width="30" height="20" as="geometry" />
        </mxCell>
        <mxCell id="BtSQhTI0HB3vT4Jcnjy8-11" value="9" style="text;html=1;align=center;verticalAlign=middle;resizable=0;points=[];autosize=1;strokeColor=none;fillColor=none;fontSize=9;fontStyle=0;fontColor=#4F4F4F;" parent="BtSQhTI0HB3vT4Jcnjy8-1" vertex="1">
          <mxGeometry x="143.5" y="589" width="30" height="20" as="geometry" />
        </mxCell>
        <mxCell id="BtSQhTI0HB3vT4Jcnjy8-12" value="10" style="text;html=1;align=center;verticalAlign=middle;resizable=0;points=[];autosize=1;strokeColor=none;fillColor=none;fontSize=9;fontStyle=0;fontColor=#4F4F4F;" parent="BtSQhTI0HB3vT4Jcnjy8-1" vertex="1">
          <mxGeometry x="223.5" y="589" width="30" height="20" as="geometry" />
        </mxCell>
        <mxCell id="BtSQhTI0HB3vT4Jcnjy8-13" value="11" style="text;html=1;align=center;verticalAlign=middle;resizable=0;points=[];autosize=1;strokeColor=none;fillColor=none;fontSize=9;fontStyle=0;fontColor=#4F4F4F;" parent="BtSQhTI0HB3vT4Jcnjy8-1" vertex="1">
          <mxGeometry x="303.5" y="589" width="30" height="20" as="geometry" />
        </mxCell>
        <mxCell id="BtSQhTI0HB3vT4Jcnjy8-14" value="12" style="text;html=1;align=center;verticalAlign=middle;resizable=0;points=[];autosize=1;strokeColor=none;fillColor=none;fontSize=9;fontStyle=0;fontColor=#4F4F4F;" parent="BtSQhTI0HB3vT4Jcnjy8-1" vertex="1">
          <mxGeometry x="383.5" y="589" width="30" height="20" as="geometry" />
        </mxCell>
        <mxCell id="BtSQhTI0HB3vT4Jcnjy8-15" value="13" style="text;html=1;align=center;verticalAlign=middle;resizable=0;points=[];autosize=1;strokeColor=none;fillColor=none;fontSize=9;fontStyle=0;fontColor=#4F4F4F;" parent="BtSQhTI0HB3vT4Jcnjy8-1" vertex="1">
          <mxGeometry x="463.5" y="589" width="30" height="20" as="geometry" />
        </mxCell>
        <mxCell id="BtSQhTI0HB3vT4Jcnjy8-16" value="14" style="text;html=1;align=center;verticalAlign=middle;resizable=0;points=[];autosize=1;strokeColor=none;fillColor=none;fontSize=9;fontStyle=0;fontColor=#4F4F4F;" parent="BtSQhTI0HB3vT4Jcnjy8-1" vertex="1">
          <mxGeometry x="543.5" y="589" width="30" height="20" as="geometry" />
        </mxCell>
        <mxCell id="BtSQhTI0HB3vT4Jcnjy8-17" value="15" style="text;html=1;align=center;verticalAlign=middle;resizable=0;points=[];autosize=1;strokeColor=none;fillColor=none;fontSize=9;fontStyle=0;fontColor=#4F4F4F;" parent="BtSQhTI0HB3vT4Jcnjy8-1" vertex="1">
          <mxGeometry x="623.5" y="589" width="30" height="20" as="geometry" />
        </mxCell>
        <mxCell id="BtSQhTI0HB3vT4Jcnjy8-18" value="16" style="text;html=1;align=center;verticalAlign=middle;resizable=0;points=[];autosize=1;strokeColor=none;fillColor=none;fontSize=9;fontStyle=0;fontColor=#4F4F4F;" parent="BtSQhTI0HB3vT4Jcnjy8-1" vertex="1">
          <mxGeometry x="703.5" y="589" width="30" height="20" as="geometry" />
        </mxCell>
        <mxCell id="BtSQhTI0HB3vT4Jcnjy8-19" value="17" style="text;html=1;align=center;verticalAlign=middle;resizable=0;points=[];autosize=1;strokeColor=none;fillColor=none;fontSize=9;fontStyle=0;fontColor=#4F4F4F;" parent="BtSQhTI0HB3vT4Jcnjy8-1" vertex="1">
          <mxGeometry x="784.5" y="589" width="30" height="20" as="geometry" />
        </mxCell>
        <mxCell id="BtSQhTI0HB3vT4Jcnjy8-20" value="18" style="text;html=1;align=center;verticalAlign=middle;resizable=0;points=[];autosize=1;strokeColor=none;fillColor=none;fontSize=9;fontStyle=0;fontColor=#4F4F4F;" parent="BtSQhTI0HB3vT4Jcnjy8-1" vertex="1">
          <mxGeometry x="143" y="509" width="30" height="20" as="geometry" />
        </mxCell>
        <mxCell id="BtSQhTI0HB3vT4Jcnjy8-21" value="19" style="text;html=1;align=center;verticalAlign=middle;resizable=0;points=[];autosize=1;strokeColor=none;fillColor=none;fontSize=9;fontStyle=0;fontColor=#4F4F4F;" parent="BtSQhTI0HB3vT4Jcnjy8-1" vertex="1">
          <mxGeometry x="223" y="509" width="30" height="20" as="geometry" />
        </mxCell>
        <mxCell id="BtSQhTI0HB3vT4Jcnjy8-22" value="20" style="text;html=1;align=center;verticalAlign=middle;resizable=0;points=[];autosize=1;strokeColor=none;fillColor=none;fontSize=9;fontStyle=0;fontColor=#4F4F4F;" parent="BtSQhTI0HB3vT4Jcnjy8-1" vertex="1">
          <mxGeometry x="303" y="509" width="30" height="20" as="geometry" />
        </mxCell>
        <mxCell id="BtSQhTI0HB3vT4Jcnjy8-23" value="21" style="text;html=1;align=center;verticalAlign=middle;resizable=0;points=[];autosize=1;strokeColor=none;fillColor=none;fontSize=9;fontStyle=0;fontColor=#4F4F4F;" parent="BtSQhTI0HB3vT4Jcnjy8-1" vertex="1">
          <mxGeometry x="383" y="509" width="30" height="20" as="geometry" />
        </mxCell>
        <mxCell id="BtSQhTI0HB3vT4Jcnjy8-24" value="22" style="text;html=1;align=center;verticalAlign=middle;resizable=0;points=[];autosize=1;strokeColor=none;fillColor=none;fontSize=9;fontStyle=0;fontColor=#4F4F4F;" parent="BtSQhTI0HB3vT4Jcnjy8-1" vertex="1">
          <mxGeometry x="463" y="509" width="30" height="20" as="geometry" />
        </mxCell>
        <mxCell id="BtSQhTI0HB3vT4Jcnjy8-25" value="23" style="text;html=1;align=center;verticalAlign=middle;resizable=0;points=[];autosize=1;strokeColor=none;fillColor=none;fontSize=9;fontStyle=0;fontColor=#4F4F4F;" parent="BtSQhTI0HB3vT4Jcnjy8-1" vertex="1">
          <mxGeometry x="543" y="509" width="30" height="20" as="geometry" />
        </mxCell>
        <mxCell id="BtSQhTI0HB3vT4Jcnjy8-26" value="24" style="text;html=1;align=center;verticalAlign=middle;resizable=0;points=[];autosize=1;strokeColor=none;fillColor=none;fontSize=9;fontStyle=0;fontColor=#4F4F4F;" parent="BtSQhTI0HB3vT4Jcnjy8-1" vertex="1">
          <mxGeometry x="623" y="509" width="30" height="20" as="geometry" />
        </mxCell>
        <mxCell id="BtSQhTI0HB3vT4Jcnjy8-27" value="25" style="text;html=1;align=center;verticalAlign=middle;resizable=0;points=[];autosize=1;strokeColor=none;fillColor=none;fontSize=9;fontStyle=0;fontColor=#4F4F4F;" parent="BtSQhTI0HB3vT4Jcnjy8-1" vertex="1">
          <mxGeometry x="703" y="509" width="30" height="20" as="geometry" />
        </mxCell>
        <mxCell id="BtSQhTI0HB3vT4Jcnjy8-28" value="26" style="text;html=1;align=center;verticalAlign=middle;resizable=0;points=[];autosize=1;strokeColor=none;fillColor=none;fontSize=9;fontStyle=0;fontColor=#4F4F4F;" parent="BtSQhTI0HB3vT4Jcnjy8-1" vertex="1">
          <mxGeometry x="784" y="509" width="30" height="20" as="geometry" />
        </mxCell>
        <mxCell id="BtSQhTI0HB3vT4Jcnjy8-29" value="27" style="text;html=1;align=center;verticalAlign=middle;resizable=0;points=[];autosize=1;strokeColor=none;fillColor=none;fontSize=9;fontStyle=0;fontColor=#4F4F4F;" parent="BtSQhTI0HB3vT4Jcnjy8-1" vertex="1">
          <mxGeometry x="143.5" y="429" width="30" height="20" as="geometry" />
        </mxCell>
        <mxCell id="BtSQhTI0HB3vT4Jcnjy8-30" value="28" style="text;html=1;align=center;verticalAlign=middle;resizable=0;points=[];autosize=1;strokeColor=none;fillColor=none;fontSize=9;fontStyle=0;fontColor=#4F4F4F;" parent="BtSQhTI0HB3vT4Jcnjy8-1" vertex="1">
          <mxGeometry x="223.5" y="429" width="30" height="20" as="geometry" />
        </mxCell>
        <mxCell id="BtSQhTI0HB3vT4Jcnjy8-31" value="29" style="text;html=1;align=center;verticalAlign=middle;resizable=0;points=[];autosize=1;strokeColor=none;fillColor=none;fontSize=9;fontStyle=0;fontColor=#4F4F4F;" parent="BtSQhTI0HB3vT4Jcnjy8-1" vertex="1">
          <mxGeometry x="303.5" y="429" width="30" height="20" as="geometry" />
        </mxCell>
        <mxCell id="BtSQhTI0HB3vT4Jcnjy8-32" value="30" style="text;html=1;align=center;verticalAlign=middle;resizable=0;points=[];autosize=1;strokeColor=none;fillColor=none;fontSize=9;fontStyle=0;fontColor=#4F4F4F;" parent="BtSQhTI0HB3vT4Jcnjy8-1" vertex="1">
          <mxGeometry x="383.5" y="429" width="30" height="20" as="geometry" />
        </mxCell>
        <mxCell id="BtSQhTI0HB3vT4Jcnjy8-33" value="31" style="text;html=1;align=center;verticalAlign=middle;resizable=0;points=[];autosize=1;strokeColor=none;fillColor=none;fontSize=9;fontStyle=0;fontColor=#4F4F4F;" parent="BtSQhTI0HB3vT4Jcnjy8-1" vertex="1">
          <mxGeometry x="463.5" y="429" width="30" height="20" as="geometry" />
        </mxCell>
        <mxCell id="BtSQhTI0HB3vT4Jcnjy8-34" value="32" style="text;html=1;align=center;verticalAlign=middle;resizable=0;points=[];autosize=1;strokeColor=none;fillColor=none;fontSize=9;fontStyle=0;fontColor=#4F4F4F;" parent="BtSQhTI0HB3vT4Jcnjy8-1" vertex="1">
          <mxGeometry x="543.5" y="429" width="30" height="20" as="geometry" />
        </mxCell>
        <mxCell id="BtSQhTI0HB3vT4Jcnjy8-35" value="33" style="text;html=1;align=center;verticalAlign=middle;resizable=0;points=[];autosize=1;strokeColor=none;fillColor=none;fontSize=9;fontStyle=0;fontColor=#4F4F4F;" parent="BtSQhTI0HB3vT4Jcnjy8-1" vertex="1">
          <mxGeometry x="623.5" y="429" width="30" height="20" as="geometry" />
        </mxCell>
        <mxCell id="BtSQhTI0HB3vT4Jcnjy8-36" value="34" style="text;html=1;align=center;verticalAlign=middle;resizable=0;points=[];autosize=1;strokeColor=none;fillColor=none;fontSize=9;fontStyle=0;fontColor=#4F4F4F;" parent="BtSQhTI0HB3vT4Jcnjy8-1" vertex="1">
          <mxGeometry x="703.5" y="429" width="30" height="20" as="geometry" />
        </mxCell>
        <mxCell id="BtSQhTI0HB3vT4Jcnjy8-37" value="35" style="text;html=1;align=center;verticalAlign=middle;resizable=0;points=[];autosize=1;strokeColor=none;fillColor=none;fontSize=9;fontStyle=0;fontColor=#4F4F4F;" parent="BtSQhTI0HB3vT4Jcnjy8-1" vertex="1">
          <mxGeometry x="784.5" y="429" width="30" height="20" as="geometry" />
        </mxCell>
        <mxCell id="BtSQhTI0HB3vT4Jcnjy8-38" value="36" style="text;html=1;align=center;verticalAlign=middle;resizable=0;points=[];autosize=1;strokeColor=none;fillColor=none;fontSize=9;fontStyle=0;fontColor=#4F4F4F;" parent="BtSQhTI0HB3vT4Jcnjy8-1" vertex="1">
          <mxGeometry x="146" y="349" width="30" height="20" as="geometry" />
        </mxCell>
        <mxCell id="BtSQhTI0HB3vT4Jcnjy8-39" value="37" style="text;html=1;align=center;verticalAlign=middle;resizable=0;points=[];autosize=1;strokeColor=none;fillColor=none;fontSize=9;fontStyle=0;fontColor=#4F4F4F;" parent="BtSQhTI0HB3vT4Jcnjy8-1" vertex="1">
          <mxGeometry x="226" y="349" width="30" height="20" as="geometry" />
        </mxCell>
        <mxCell id="BtSQhTI0HB3vT4Jcnjy8-40" value="38" style="text;html=1;align=center;verticalAlign=middle;resizable=0;points=[];autosize=1;strokeColor=none;fillColor=none;fontSize=9;fontStyle=0;fontColor=#4F4F4F;" parent="BtSQhTI0HB3vT4Jcnjy8-1" vertex="1">
          <mxGeometry x="306" y="349" width="30" height="20" as="geometry" />
        </mxCell>
        <mxCell id="BtSQhTI0HB3vT4Jcnjy8-41" value="39" style="text;html=1;align=center;verticalAlign=middle;resizable=0;points=[];autosize=1;strokeColor=none;fillColor=none;fontSize=9;fontStyle=0;fontColor=#4F4F4F;" parent="BtSQhTI0HB3vT4Jcnjy8-1" vertex="1">
          <mxGeometry x="386" y="349" width="30" height="20" as="geometry" />
        </mxCell>
        <mxCell id="BtSQhTI0HB3vT4Jcnjy8-42" value="40" style="text;html=1;align=center;verticalAlign=middle;resizable=0;points=[];autosize=1;strokeColor=none;fillColor=none;fontSize=9;fontStyle=0;fontColor=#4F4F4F;" parent="BtSQhTI0HB3vT4Jcnjy8-1" vertex="1">
          <mxGeometry x="466" y="349" width="30" height="20" as="geometry" />
        </mxCell>
        <mxCell id="BtSQhTI0HB3vT4Jcnjy8-43" value="41" style="text;html=1;align=center;verticalAlign=middle;resizable=0;points=[];autosize=1;strokeColor=none;fillColor=none;fontSize=9;fontStyle=0;fontColor=#4F4F4F;" parent="BtSQhTI0HB3vT4Jcnjy8-1" vertex="1">
          <mxGeometry x="546" y="349" width="30" height="20" as="geometry" />
        </mxCell>
        <mxCell id="BtSQhTI0HB3vT4Jcnjy8-44" value="42" style="text;html=1;align=center;verticalAlign=middle;resizable=0;points=[];autosize=1;strokeColor=none;fillColor=none;fontSize=9;fontStyle=0;fontColor=#4F4F4F;" parent="BtSQhTI0HB3vT4Jcnjy8-1" vertex="1">
          <mxGeometry x="626" y="349" width="30" height="20" as="geometry" />
        </mxCell>
        <mxCell id="BtSQhTI0HB3vT4Jcnjy8-45" value="43" style="text;html=1;align=center;verticalAlign=middle;resizable=0;points=[];autosize=1;strokeColor=none;fillColor=none;fontSize=9;fontStyle=0;fontColor=#4F4F4F;" parent="BtSQhTI0HB3vT4Jcnjy8-1" vertex="1">
          <mxGeometry x="706" y="349" width="30" height="20" as="geometry" />
        </mxCell>
        <mxCell id="BtSQhTI0HB3vT4Jcnjy8-46" value="44" style="text;html=1;align=center;verticalAlign=middle;resizable=0;points=[];autosize=1;strokeColor=none;fillColor=none;fontSize=9;fontStyle=0;fontColor=#4F4F4F;" parent="BtSQhTI0HB3vT4Jcnjy8-1" vertex="1">
          <mxGeometry x="787" y="349" width="30" height="20" as="geometry" />
        </mxCell>
        <mxCell id="BtSQhTI0HB3vT4Jcnjy8-47" value="45" style="text;html=1;align=center;verticalAlign=middle;resizable=0;points=[];autosize=1;strokeColor=none;fillColor=none;fontSize=9;fontStyle=0;fontColor=#4F4F4F;" parent="BtSQhTI0HB3vT4Jcnjy8-1" vertex="1">
          <mxGeometry x="145" y="269" width="30" height="20" as="geometry" />
        </mxCell>
        <mxCell id="BtSQhTI0HB3vT4Jcnjy8-48" value="46" style="text;html=1;align=center;verticalAlign=middle;resizable=0;points=[];autosize=1;strokeColor=none;fillColor=none;fontSize=9;fontStyle=0;fontColor=#4F4F4F;" parent="BtSQhTI0HB3vT4Jcnjy8-1" vertex="1">
          <mxGeometry x="225" y="269" width="30" height="20" as="geometry" />
        </mxCell>
        <mxCell id="BtSQhTI0HB3vT4Jcnjy8-49" value="47" style="text;html=1;align=center;verticalAlign=middle;resizable=0;points=[];autosize=1;strokeColor=none;fillColor=none;fontSize=9;fontStyle=0;fontColor=#4F4F4F;" parent="BtSQhTI0HB3vT4Jcnjy8-1" vertex="1">
          <mxGeometry x="305" y="269" width="30" height="20" as="geometry" />
        </mxCell>
        <mxCell id="BtSQhTI0HB3vT4Jcnjy8-50" value="48" style="text;html=1;align=center;verticalAlign=middle;resizable=0;points=[];autosize=1;strokeColor=none;fillColor=none;fontSize=9;fontStyle=0;fontColor=#4F4F4F;" parent="BtSQhTI0HB3vT4Jcnjy8-1" vertex="1">
          <mxGeometry x="385" y="269" width="30" height="20" as="geometry" />
        </mxCell>
        <mxCell id="BtSQhTI0HB3vT4Jcnjy8-51" value="49" style="text;html=1;align=center;verticalAlign=middle;resizable=0;points=[];autosize=1;strokeColor=none;fillColor=none;fontSize=9;fontStyle=0;fontColor=#4F4F4F;" parent="BtSQhTI0HB3vT4Jcnjy8-1" vertex="1">
          <mxGeometry x="465" y="269" width="30" height="20" as="geometry" />
        </mxCell>
        <mxCell id="BtSQhTI0HB3vT4Jcnjy8-52" value="50" style="text;html=1;align=center;verticalAlign=middle;resizable=0;points=[];autosize=1;strokeColor=none;fillColor=none;fontSize=9;fontStyle=0;fontColor=#4F4F4F;" parent="BtSQhTI0HB3vT4Jcnjy8-1" vertex="1">
          <mxGeometry x="545" y="269" width="30" height="20" as="geometry" />
        </mxCell>
        <mxCell id="BtSQhTI0HB3vT4Jcnjy8-53" value="51" style="text;html=1;align=center;verticalAlign=middle;resizable=0;points=[];autosize=1;strokeColor=none;fillColor=none;fontSize=9;fontStyle=0;fontColor=#4F4F4F;" parent="BtSQhTI0HB3vT4Jcnjy8-1" vertex="1">
          <mxGeometry x="625" y="269" width="30" height="20" as="geometry" />
        </mxCell>
        <mxCell id="BtSQhTI0HB3vT4Jcnjy8-54" value="52" style="text;html=1;align=center;verticalAlign=middle;resizable=0;points=[];autosize=1;strokeColor=none;fillColor=none;fontSize=9;fontStyle=0;fontColor=#4F4F4F;" parent="BtSQhTI0HB3vT4Jcnjy8-1" vertex="1">
          <mxGeometry x="705" y="269" width="30" height="20" as="geometry" />
        </mxCell>
        <mxCell id="BtSQhTI0HB3vT4Jcnjy8-55" value="53" style="text;html=1;align=center;verticalAlign=middle;resizable=0;points=[];autosize=1;strokeColor=none;fillColor=none;fontSize=9;fontStyle=0;fontColor=#4F4F4F;" parent="BtSQhTI0HB3vT4Jcnjy8-1" vertex="1">
          <mxGeometry x="786" y="269" width="30" height="20" as="geometry" />
        </mxCell>
        <mxCell id="BtSQhTI0HB3vT4Jcnjy8-56" value="54" style="text;html=1;align=center;verticalAlign=middle;resizable=0;points=[];autosize=1;strokeColor=none;fillColor=none;fontSize=9;fontStyle=0;fontColor=#4F4F4F;" parent="BtSQhTI0HB3vT4Jcnjy8-1" vertex="1">
          <mxGeometry x="145.5" y="189" width="30" height="20" as="geometry" />
        </mxCell>
        <mxCell id="BtSQhTI0HB3vT4Jcnjy8-57" value="55" style="text;html=1;align=center;verticalAlign=middle;resizable=0;points=[];autosize=1;strokeColor=none;fillColor=none;fontSize=9;fontStyle=0;fontColor=#4F4F4F;" parent="BtSQhTI0HB3vT4Jcnjy8-1" vertex="1">
          <mxGeometry x="225.5" y="189" width="30" height="20" as="geometry" />
        </mxCell>
        <mxCell id="BtSQhTI0HB3vT4Jcnjy8-58" value="56" style="text;html=1;align=center;verticalAlign=middle;resizable=0;points=[];autosize=1;strokeColor=none;fillColor=none;fontSize=9;fontStyle=0;fontColor=#4F4F4F;" parent="BtSQhTI0HB3vT4Jcnjy8-1" vertex="1">
          <mxGeometry x="305.5" y="189" width="30" height="20" as="geometry" />
        </mxCell>
        <mxCell id="BtSQhTI0HB3vT4Jcnjy8-59" value="57" style="text;html=1;align=center;verticalAlign=middle;resizable=0;points=[];autosize=1;strokeColor=none;fillColor=none;fontSize=9;fontStyle=0;fontColor=#4F4F4F;" parent="BtSQhTI0HB3vT4Jcnjy8-1" vertex="1">
          <mxGeometry x="385.5" y="189" width="30" height="20" as="geometry" />
        </mxCell>
        <mxCell id="BtSQhTI0HB3vT4Jcnjy8-60" value="58" style="text;html=1;align=center;verticalAlign=middle;resizable=0;points=[];autosize=1;strokeColor=none;fillColor=none;fontSize=9;fontStyle=0;fontColor=#4F4F4F;" parent="BtSQhTI0HB3vT4Jcnjy8-1" vertex="1">
          <mxGeometry x="465.5" y="189" width="30" height="20" as="geometry" />
        </mxCell>
        <mxCell id="BtSQhTI0HB3vT4Jcnjy8-61" value="59" style="text;html=1;align=center;verticalAlign=middle;resizable=0;points=[];autosize=1;strokeColor=none;fillColor=none;fontSize=9;fontStyle=0;fontColor=#4F4F4F;" parent="BtSQhTI0HB3vT4Jcnjy8-1" vertex="1">
          <mxGeometry x="545.5" y="189" width="30" height="20" as="geometry" />
        </mxCell>
        <mxCell id="BtSQhTI0HB3vT4Jcnjy8-62" value="60" style="text;html=1;align=center;verticalAlign=middle;resizable=0;points=[];autosize=1;strokeColor=none;fillColor=none;fontSize=9;fontStyle=0;fontColor=#4F4F4F;" parent="BtSQhTI0HB3vT4Jcnjy8-1" vertex="1">
          <mxGeometry x="625.5" y="189" width="30" height="20" as="geometry" />
        </mxCell>
        <mxCell id="BtSQhTI0HB3vT4Jcnjy8-63" value="61" style="text;html=1;align=center;verticalAlign=middle;resizable=0;points=[];autosize=1;strokeColor=none;fillColor=none;fontSize=9;fontStyle=0;fontColor=#4F4F4F;" parent="BtSQhTI0HB3vT4Jcnjy8-1" vertex="1">
          <mxGeometry x="705.5" y="189" width="30" height="20" as="geometry" />
        </mxCell>
        <mxCell id="BtSQhTI0HB3vT4Jcnjy8-64" value="62" style="text;html=1;align=center;verticalAlign=middle;resizable=0;points=[];autosize=1;strokeColor=none;fillColor=none;fontSize=9;fontStyle=0;fontColor=#4F4F4F;" parent="BtSQhTI0HB3vT4Jcnjy8-1" vertex="1">
          <mxGeometry x="786.5" y="189" width="30" height="20" as="geometry" />
        </mxCell>
        <mxCell id="BtSQhTI0HB3vT4Jcnjy8-65" value="63" style="text;html=1;align=center;verticalAlign=middle;resizable=0;points=[];autosize=1;strokeColor=none;fillColor=none;fontSize=9;fontStyle=0;fontColor=#4F4F4F;" parent="BtSQhTI0HB3vT4Jcnjy8-1" vertex="1">
          <mxGeometry x="143.5" y="108" width="30" height="20" as="geometry" />
        </mxCell>
        <mxCell id="BtSQhTI0HB3vT4Jcnjy8-66" value="64" style="text;html=1;align=center;verticalAlign=middle;resizable=0;points=[];autosize=1;strokeColor=none;fillColor=none;fontSize=9;fontStyle=0;fontColor=#4F4F4F;" parent="BtSQhTI0HB3vT4Jcnjy8-1" vertex="1">
          <mxGeometry x="223.5" y="108" width="30" height="20" as="geometry" />
        </mxCell>
        <mxCell id="BtSQhTI0HB3vT4Jcnjy8-67" value="65" style="text;html=1;align=center;verticalAlign=middle;resizable=0;points=[];autosize=1;strokeColor=none;fillColor=none;fontSize=9;fontStyle=0;fontColor=#4F4F4F;" parent="BtSQhTI0HB3vT4Jcnjy8-1" vertex="1">
          <mxGeometry x="303.5" y="108" width="30" height="20" as="geometry" />
        </mxCell>
        <mxCell id="BtSQhTI0HB3vT4Jcnjy8-68" value="66" style="text;html=1;align=center;verticalAlign=middle;resizable=0;points=[];autosize=1;strokeColor=none;fillColor=none;fontSize=9;fontStyle=0;fontColor=#4F4F4F;" parent="BtSQhTI0HB3vT4Jcnjy8-1" vertex="1">
          <mxGeometry x="383.5" y="108" width="30" height="20" as="geometry" />
        </mxCell>
        <mxCell id="BtSQhTI0HB3vT4Jcnjy8-69" value="67" style="text;html=1;align=center;verticalAlign=middle;resizable=0;points=[];autosize=1;strokeColor=none;fillColor=none;fontSize=9;fontStyle=0;fontColor=#4F4F4F;" parent="BtSQhTI0HB3vT4Jcnjy8-1" vertex="1">
          <mxGeometry x="463.5" y="108" width="30" height="20" as="geometry" />
        </mxCell>
        <mxCell id="BtSQhTI0HB3vT4Jcnjy8-70" value="68" style="text;html=1;align=center;verticalAlign=middle;resizable=0;points=[];autosize=1;strokeColor=none;fillColor=none;fontSize=9;fontStyle=0;fontColor=#4F4F4F;" parent="BtSQhTI0HB3vT4Jcnjy8-1" vertex="1">
          <mxGeometry x="543.5" y="108" width="30" height="20" as="geometry" />
        </mxCell>
        <mxCell id="BtSQhTI0HB3vT4Jcnjy8-71" value="69" style="text;html=1;align=center;verticalAlign=middle;resizable=0;points=[];autosize=1;strokeColor=none;fillColor=none;fontSize=9;fontStyle=0;fontColor=#4F4F4F;" parent="BtSQhTI0HB3vT4Jcnjy8-1" vertex="1">
          <mxGeometry x="623.5" y="108" width="30" height="20" as="geometry" />
        </mxCell>
        <mxCell id="BtSQhTI0HB3vT4Jcnjy8-72" value="70" style="text;html=1;align=center;verticalAlign=middle;resizable=0;points=[];autosize=1;strokeColor=none;fillColor=none;fontSize=9;fontStyle=0;fontColor=#4F4F4F;" parent="BtSQhTI0HB3vT4Jcnjy8-1" vertex="1">
          <mxGeometry x="703.5" y="108" width="30" height="20" as="geometry" />
        </mxCell>
        <mxCell id="BtSQhTI0HB3vT4Jcnjy8-73" value="71" style="text;html=1;align=center;verticalAlign=middle;resizable=0;points=[];autosize=1;strokeColor=none;fillColor=none;fontSize=9;fontStyle=0;fontColor=#4F4F4F;" parent="BtSQhTI0HB3vT4Jcnjy8-1" vertex="1">
          <mxGeometry x="784.5" y="108" width="30" height="20" as="geometry" />
        </mxCell>
        <mxCell id="BtSQhTI0HB3vT4Jcnjy8-74" value="72" style="text;html=1;align=center;verticalAlign=middle;resizable=0;points=[];autosize=1;strokeColor=none;fillColor=none;fontSize=9;fontStyle=0;fontColor=#949494;" parent="BtSQhTI0HB3vT4Jcnjy8-1" vertex="1">
          <mxGeometry x="143.5" y="29" width="30" height="20" as="geometry" />
        </mxCell>
        <mxCell id="BtSQhTI0HB3vT4Jcnjy8-75" value="73" style="text;html=1;align=center;verticalAlign=middle;resizable=0;points=[];autosize=1;strokeColor=none;fillColor=none;fontSize=9;fontStyle=0;fontColor=#949494;" parent="BtSQhTI0HB3vT4Jcnjy8-1" vertex="1">
          <mxGeometry x="223.5" y="29" width="30" height="20" as="geometry" />
        </mxCell>
        <mxCell id="BtSQhTI0HB3vT4Jcnjy8-76" value="74" style="text;html=1;align=center;verticalAlign=middle;resizable=0;points=[];autosize=1;strokeColor=none;fillColor=none;fontSize=9;fontStyle=0;fontColor=#949494;" parent="BtSQhTI0HB3vT4Jcnjy8-1" vertex="1">
          <mxGeometry x="303.5" y="29" width="30" height="20" as="geometry" />
        </mxCell>
        <mxCell id="BtSQhTI0HB3vT4Jcnjy8-77" value="75" style="text;html=1;align=center;verticalAlign=middle;resizable=0;points=[];autosize=1;strokeColor=none;fillColor=none;fontSize=9;fontStyle=0;fontColor=#949494;" parent="BtSQhTI0HB3vT4Jcnjy8-1" vertex="1">
          <mxGeometry x="383.5" y="29" width="30" height="20" as="geometry" />
        </mxCell>
        <mxCell id="BtSQhTI0HB3vT4Jcnjy8-78" value="76" style="text;html=1;align=center;verticalAlign=middle;resizable=0;points=[];autosize=1;strokeColor=none;fillColor=none;fontSize=9;fontStyle=0;fontColor=#949494;" parent="BtSQhTI0HB3vT4Jcnjy8-1" vertex="1">
          <mxGeometry x="463.5" y="29" width="30" height="20" as="geometry" />
        </mxCell>
        <mxCell id="BtSQhTI0HB3vT4Jcnjy8-79" value="77" style="text;html=1;align=center;verticalAlign=middle;resizable=0;points=[];autosize=1;strokeColor=none;fillColor=none;fontSize=9;fontStyle=0;fontColor=#949494;" parent="BtSQhTI0HB3vT4Jcnjy8-1" vertex="1">
          <mxGeometry x="543.5" y="29" width="30" height="20" as="geometry" />
        </mxCell>
        <mxCell id="BtSQhTI0HB3vT4Jcnjy8-80" value="78" style="text;html=1;align=center;verticalAlign=middle;resizable=0;points=[];autosize=1;strokeColor=none;fillColor=none;fontSize=9;fontStyle=0;fontColor=#949494;" parent="BtSQhTI0HB3vT4Jcnjy8-1" vertex="1">
          <mxGeometry x="623.5" y="29" width="30" height="20" as="geometry" />
        </mxCell>
        <mxCell id="BtSQhTI0HB3vT4Jcnjy8-81" value="79" style="text;html=1;align=center;verticalAlign=middle;resizable=0;points=[];autosize=1;strokeColor=none;fillColor=none;fontSize=9;fontStyle=0;fontColor=#949494;" parent="BtSQhTI0HB3vT4Jcnjy8-1" vertex="1">
          <mxGeometry x="703.5" y="29" width="30" height="20" as="geometry" />
        </mxCell>
        <mxCell id="BtSQhTI0HB3vT4Jcnjy8-82" value="80" style="text;html=1;align=center;verticalAlign=middle;resizable=0;points=[];autosize=1;strokeColor=none;fillColor=none;fontSize=9;fontStyle=0;fontColor=#949494;" parent="BtSQhTI0HB3vT4Jcnjy8-1" vertex="1">
          <mxGeometry x="784.5" y="29" width="30" height="20" as="geometry" />
        </mxCell>
        <mxCell id="89PQKOFuobvwljje_Hko-631" value="Explaining Edges" parent="0" visible="0" />
        <mxCell id="89PQKOFuobvwljje_Hko-632" value="41" style="whiteSpace=wrap;html=1;aspect=fixed;fontColor=#595959;" parent="89PQKOFuobvwljje_Hko-631" vertex="1">
          <mxGeometry x="130" y="890" width="60" height="60" as="geometry" />
        </mxCell>
        <mxCell id="89PQKOFuobvwljje_Hko-633" value="40" style="text;html=1;align=center;verticalAlign=middle;resizable=0;points=[];autosize=1;strokeColor=none;fillColor=none;fontSize=9;fontStyle=0;fontColor=#4F4F4F;" parent="89PQKOFuobvwljje_Hko-631" vertex="1">
          <mxGeometry x="105" y="909" width="30" height="20" as="geometry" />
        </mxCell>
        <mxCell id="89PQKOFuobvwljje_Hko-634" value="40" style="whiteSpace=wrap;html=1;aspect=fixed;fontColor=#A6A6A6;strokeColor=#8A8A8A;" parent="89PQKOFuobvwljje_Hko-631" vertex="1">
          <mxGeometry x="50" y="890" width="60" height="60" as="geometry" />
        </mxCell>
        <mxCell id="89PQKOFuobvwljje_Hko-635" value="41" style="text;html=1;align=center;verticalAlign=middle;resizable=0;points=[];autosize=1;strokeColor=none;fillColor=none;fontSize=9;fontStyle=0;fontColor=#4F4F4F;" parent="89PQKOFuobvwljje_Hko-631" vertex="1">
          <mxGeometry x="146" y="869" width="30" height="20" as="geometry" />
        </mxCell>
        <mxCell id="89PQKOFuobvwljje_Hko-636" value="41" style="text;html=1;align=center;verticalAlign=middle;resizable=0;points=[];autosize=1;strokeColor=none;fillColor=none;fontSize=9;fontStyle=0;fontColor=#4F4F4F;" parent="89PQKOFuobvwljje_Hko-631" vertex="1">
          <mxGeometry x="186" y="909" width="30" height="20" as="geometry" />
        </mxCell>
        <mxCell id="89PQKOFuobvwljje_Hko-637" value="32" style="text;html=1;align=center;verticalAlign=middle;resizable=0;points=[];autosize=1;strokeColor=none;fillColor=none;fontSize=9;fontStyle=0;fontColor=#4F4F4F;" parent="89PQKOFuobvwljje_Hko-631" vertex="1">
          <mxGeometry x="143.5" y="949" width="30" height="20" as="geometry" />
        </mxCell>
        <mxCell id="89PQKOFuobvwljje_Hko-638" value="42" style="whiteSpace=wrap;html=1;aspect=fixed;fontColor=#A6A6A6;strokeColor=#8A8A8A;" parent="89PQKOFuobvwljje_Hko-631" vertex="1">
          <mxGeometry x="210" y="890" width="60" height="60" as="geometry" />
        </mxCell>
        <mxCell id="89PQKOFuobvwljje_Hko-639" value="50" style="whiteSpace=wrap;html=1;aspect=fixed;fontColor=#A6A6A6;strokeColor=#8A8A8A;" parent="89PQKOFuobvwljje_Hko-631" vertex="1">
          <mxGeometry x="130" y="810" width="60" height="60" as="geometry" />
        </mxCell>
        <mxCell id="89PQKOFuobvwljje_Hko-643" value="32" style="whiteSpace=wrap;html=1;aspect=fixed;fontColor=#A6A6A6;strokeColor=#8A8A8A;" parent="89PQKOFuobvwljje_Hko-631" vertex="1">
          <mxGeometry x="130" y="970" width="60" height="60" as="geometry" />
        </mxCell>
        <mxCell id="89PQKOFuobvwljje_Hko-653" value="N" style="text;html=1;align=center;verticalAlign=middle;resizable=0;points=[];autosize=1;strokeColor=none;fillColor=none;fontFamily=Helvetica;fontSize=12;fontColor=default;" parent="89PQKOFuobvwljje_Hko-631" vertex="1">
          <mxGeometry x="145" y="883" width="30" height="30" as="geometry" />
        </mxCell>
        <mxCell id="89PQKOFuobvwljje_Hko-654" value="S" style="text;html=1;align=center;verticalAlign=middle;resizable=0;points=[];autosize=1;strokeColor=none;fillColor=none;fontFamily=Helvetica;fontSize=12;fontColor=default;" parent="89PQKOFuobvwljje_Hko-631" vertex="1">
          <mxGeometry x="143.5" y="926" width="30" height="30" as="geometry" />
        </mxCell>
        <mxCell id="89PQKOFuobvwljje_Hko-655" value="E" style="text;html=1;align=center;verticalAlign=middle;resizable=0;points=[];autosize=1;strokeColor=none;fillColor=none;fontFamily=Helvetica;fontSize=12;fontColor=default;" parent="89PQKOFuobvwljje_Hko-631" vertex="1">
          <mxGeometry x="167" y="904" width="30" height="30" as="geometry" />
        </mxCell>
        <mxCell id="89PQKOFuobvwljje_Hko-656" value="W" style="text;html=1;align=center;verticalAlign=middle;resizable=0;points=[];autosize=1;strokeColor=none;fillColor=none;fontFamily=Helvetica;fontSize=12;fontColor=default;" parent="89PQKOFuobvwljje_Hko-631" vertex="1">
          <mxGeometry x="124" y="905" width="30" height="30" as="geometry" />
        </mxCell>
        <mxCell id="89PQKOFuobvwljje_Hko-657" value="&amp;nbsp;" style="text;whiteSpace=wrap;html=1;fontFamily=Helvetica;fontSize=12;fontColor=default;autosize=1;resizable=0;" parent="89PQKOFuobvwljje_Hko-631" vertex="1">
          <mxGeometry x="-110" y="520" width="40" height="40" as="geometry" />
        </mxCell>
      </root>
    </mxGraphModel>
  </diagram>
</mxfile>
